<svg role="img" viewBox="0 0 800 800" xmlns="http://www.w3.org/2000/svg" id="N8n--Streamline-Simple-Icons" height="800" width="800"><desc>N8n Streamline Icon: https://streamlinehq.com</desc><title>n8n</title><path d="M715.7900000000001 189.47333333333333c-39.24 0 -72.21000000000001 26.83666666666667 -81.56 63.15666666666667h-96.51666666666668c-41.16666666666667 0 -76.30000000000001 29.76666666666667 -83.06666666666668 70.36666666666667l-3.4600000000000004 20.76666666666667a42.1 42.1 0 0 1 -41.53333333333334 35.18333333333334H376.3c-9.350000000000001 -36.32 -42.32000000000001 -63.15666666666667 -81.56 -63.15666666666667s-72.21000000000001 26.83666666666667 -81.55666666666667 63.15666666666667H165.76666666666668c-9.350000000000001 -36.32 -42.32000000000001 -63.15666666666667 -81.56 -63.15666666666667C37.70333333333333 315.79 0 353.49 0 400s37.7 84.21000000000001 84.21000000000001 84.21000000000001c39.24 0 72.21000000000001 -26.83666666666667 81.56 -63.15666666666667h47.41c9.346666666666668 36.32 42.32000000000001 63.15666666666667 81.55666666666667 63.15666666666667 39.24 0 72.21000000000001 -26.83666666666667 81.56 -63.15666666666667h33.36a42.1 42.1 0 0 1 41.53 35.18333333333334l3.4600000000000004 20.76666666666667c6.7666666666666675 40.6 41.9 70.36666666666667 83.06666666666668 70.36666666666667h12.306666666666667c9.346666666666668 36.31666666666666 42.32000000000001 63.15666666666667 81.56 63.15666666666667 46.50666666666667 0 84.21000000000001 -37.7 84.21000000000001 -84.21000000000001s-37.7 -84.21000000000001 -84.21000000000001 -84.21000000000001c-39.24 0 -72.21333333333334 26.833333333333336 -81.56 63.15666666666667h-12.306666666666667a42.1 42.1 0 0 1 -41.53333333333334 -35.18333333333334l-3.456666666666667 -20.76666666666667A84 84 0 0 0 465.3566666666667 400a84 84 0 0 0 27.366666666666667 -49.31333333333334l3.4600000000000004 -20.76666666666667a42.1 42.1 0 0 1 41.53 -35.18333333333334h96.51666666666668c9.350000000000001 36.32 42.32000000000001 63.15666666666667 81.56 63.15666666666667 46.50666666666667 0 84.21000000000001 -37.7 84.21000000000001 -84.21000000000001s-37.7 -84.21000000000001 -84.21000000000001 -84.21000000000001m0 42.106666666666676a42.1 42.1 0 0 1 42.10333333333333 42.10333333333333 42.1 42.1 0 0 1 -42.10333333333333 42.106666666666676 42.1 42.1 0 0 1 -42.106666666666676 -42.106666666666676 42.1 42.1 0 0 1 42.106666666666676 -42.10333333333333M84.21000000000001 357.8933333333334A42.1 42.1 0 0 1 126.31666666666668 400a42.1 42.1 0 0 1 -42.106666666666676 42.106666666666676A42.1 42.1 0 0 1 42.106666666666676 400a42.1 42.1 0 0 1 42.10333333333333 -42.106666666666676m210.5266666666667 0A42.1 42.1 0 0 1 336.84333333333336 400a42.1 42.1 0 0 1 -42.106666666666676 42.106666666666676A42.1 42.1 0 0 1 252.63333333333335 400a42.1 42.1 0 0 1 42.106666666666676 -42.106666666666676m336.84333333333336 126.31666666666668a42.1 42.1 0 0 1 42.10333333333333 42.106666666666676 42.1 42.1 0 0 1 -42.10333333333333 42.10333333333333 42.1 42.1 0 0 1 -42.106666666666676 -42.10333333333333 42.1 42.1 0 0 1 42.106666666666676 -42.106666666666676" fill="#000000" stroke-width="33.3333"></path></svg>