<?xml version="1.0" encoding="UTF-8"?>
<svg version="1.1" xmlns="http://www.w3.org/2000/svg" width="300" height="300">
<path d="M0 0 C8.69898392 5.66929296 15.90106311 13.90848492 19.61328125 23.703125 C20.29851364 23.60290039 20.98374603 23.50267578 21.68974304 23.39941406 C28.20363533 22.44835593 34.71876278 21.50630636 41.23535442 20.57391357 C44.58413776 20.09445841 47.93237855 19.61174703 51.27954102 19.12109375 C55.1435008 18.55644427 59.00901613 18.00372437 62.875 17.453125 C64.05470871 17.27813477 65.23441742 17.10314453 66.44987488 16.92285156 C74.21993565 15.83137758 81.77043557 15.498734 89.61328125 15.703125 C90.85633357 18.66364315 91.88597011 21.45424581 92.46020508 24.61376953 C92.5987793 25.36069061 92.73735352 26.10761169 92.88012695 26.87716675 C93.0980188 28.09425827 93.0980188 28.09425827 93.3203125 29.3359375 C93.56273682 30.65055466 93.56273682 30.65055466 93.81005859 31.99172974 C94.16482676 33.91683074 94.51739946 35.8423373 94.86807251 37.76818848 C95.84371714 43.12118086 96.83814596 48.47068165 97.83203125 53.8203125 C98.04761185 54.98208008 98.26319244 56.14384766 98.48530579 57.34082031 C101.24346565 72.15848124 104.12055634 86.95316132 106.99718857 101.74819183 C107.42129827 103.9300619 107.84495501 106.11201944 108.26846313 108.29400635 C108.94573547 111.78324838 109.62390594 115.27231485 110.30260277 118.76128006 C110.56297249 120.10053644 110.82305794 121.43984812 111.0828495 122.77921677 C112.31708642 129.14209044 113.56091554 135.50150572 114.88818359 141.84570312 C115.07821457 142.76148132 115.26824554 143.67725952 115.46403503 144.62078857 C115.80442378 146.25089454 116.15111788 147.87970652 116.50630188 149.50665283 C118.19490149 157.60739117 118.24907679 164.04409967 114.1328125 171.4375 C109.99079709 177.61325563 105.12248243 179.07001508 97.98828125 180.515625 C93.80367384 181.2837933 89.86966008 181.85805067 85.61328125 181.703125 C85.38640625 182.280625 85.15953125 182.858125 84.92578125 183.453125 C82.70279257 187.26396274 79.75539133 189.32242164 75.61328125 190.703125 C74.05576187 190.79343714 72.49470561 190.82823601 70.93457031 190.82910156 C69.97801544 190.83313995 69.02146057 190.83717834 68.03591919 190.84133911 C66.99410492 190.8421347 65.95229065 190.8429303 64.87890625 190.84375 C62.63036008 190.85788237 60.38182427 190.87374302 58.13330078 190.89111328 C56.35563324 190.90467865 56.35563324 190.90467865 54.54205322 190.91851807 C31.06332199 191.13938712 8.38023327 192.68827158 -14.79547119 196.30480957 C-19.56495595 197.03795425 -24.34137285 197.72358241 -29.1171875 198.4140625 C-31.16391441 198.7105921 -33.21062656 199.00722366 -35.25732422 199.30395508 C-36.27969177 199.45216705 -37.30205933 199.60037903 -38.35540771 199.75308228 C-41.42243601 200.19922904 -44.488898 200.64906772 -47.55517578 201.1003418 C-59.76081488 202.89629086 -71.96925751 204.66587167 -84.19625854 206.31103516 C-85.79407149 206.52682352 -87.39152327 206.74530742 -88.98855591 206.96679688 C-114.17325915 210.45029486 -114.17325915 210.45029486 -123.2578125 205.33203125 C-127.27821505 202.25587003 -129.48780745 198.1971632 -131.18359375 193.4921875 C-132.26234459 191.43934367 -132.26234459 191.43934367 -134.77734375 191.19921875 C-135.7209375 191.17988281 -136.66453125 191.16054687 -137.63671875 191.140625 C-143.71559838 190.78304385 -147.50868583 189.78418851 -151.69921875 185.140625 C-155.38009299 179.82380666 -154.57312124 174.72539351 -154.56640625 168.40234375 C-154.56518768 167.11768723 -154.56396912 165.8330307 -154.56271362 164.50944519 C-154.49160832 148.62491104 -153.55933318 132.78071663 -152.64904785 116.92651367 C-152.42139039 112.92986045 -152.20342593 108.93267933 -151.984375 104.93554688 C-151.55250553 97.08644803 -151.10670944 89.23820004 -150.65539551 81.39019775 C-150.42665781 77.40997176 -150.20194876 73.42952821 -149.97815895 69.44902134 C-149.80187262 66.32307887 -149.62318064 63.19727721 -149.44384384 60.07150841 C-149.36010211 58.60503796 -149.27722318 57.13851794 -149.1952858 55.67194557 C-148.30339205 39.74245951 -148.30339205 39.74245951 -147.38671875 34.703125 C-144.85484997 33.43719061 -143.03697084 33.54394306 -140.20263672 33.49780273 C-138.5811824 33.4678849 -138.5811824 33.4678849 -136.92697144 33.43736267 C-135.75610992 33.42065018 -134.58524841 33.40393768 -133.37890625 33.38671875 C-132.18314972 33.36593765 -130.98739319 33.34515656 -129.75540161 33.32374573 C-125.92423411 33.25820211 -122.09299637 33.19934282 -118.26171875 33.140625 C-115.66926348 33.09744437 -113.07681539 33.05383023 -110.484375 33.00976562 C-104.11856448 32.90251581 -97.75268362 32.8007584 -91.38671875 32.703125 C-90.58790283 31.06633789 -90.58790283 31.06633789 -89.77294922 29.39648438 C-89.05851235 27.94649428 -88.34381766 26.49663119 -87.62890625 25.046875 C-87.10526489 23.97131348 -87.10526489 23.97131348 -86.57104492 22.87402344 C-78.88353214 7.3390265 -66.45241357 -2.49185877 -50.28515625 -8.4375 C-32.43972896 -12.37136173 -15.36467894 -9.48584588 0 0 Z M-60.859375 18.8828125 C-64.93501292 22.8192823 -68.60786541 26.74951688 -71.38671875 31.703125 C-71.38671875 32.363125 -71.38671875 33.023125 -71.38671875 33.703125 C-47.64704306 34.96158273 -24.77289599 31.36365479 -1.38671875 27.703125 C-0.95768859 23.73792219 -0.95768859 23.73792219 -3.22265625 21.51953125 C-20.56693664 6.12314697 -42.41863102 2.6269908 -60.859375 18.8828125 Z M64.46875 28.796875 C63.31406975 28.96334534 63.31406975 28.96334534 62.13606262 29.13317871 C59.69047743 29.48652909 57.24563538 29.84475484 54.80078125 30.203125 C53.13741656 30.44433312 51.47400554 30.68522205 49.81054688 30.92578125 C45.74424597 31.51453413 41.67860427 32.10765891 37.61328125 32.703125 C37.61328125 33.033125 37.61328125 33.363125 37.61328125 33.703125 C51.47328125 34.033125 65.33328125 34.363125 79.61328125 34.703125 C78.95328125 32.393125 78.29328125 30.083125 77.61328125 27.703125 C73.15675436 27.5501112 68.86415474 28.14705578 64.46875 28.796875 Z M80.61328125 43.703125 C81.28110167 58.73447802 82.00294849 73.76243794 82.76953125 88.7890625 C82.82252884 89.82906025 82.87552643 90.869058 82.93013 91.94057083 C83.20930244 97.41582488 83.48933374 102.89103427 83.77001953 108.36621094 C84.00052584 112.86580242 84.22927764 117.36547805 84.45654297 121.86523438 C84.73389479 127.35665843 85.01412207 132.84792858 85.2964325 138.33909988 C85.40267144 140.41458736 85.507922 142.49012569 85.61213684 144.56571579 C85.7575398 147.45720854 85.90665212 150.34848807 86.05664062 153.23974609 C86.098228 154.08344254 86.13981537 154.92713898 86.18266296 155.79640198 C86.44723737 160.80675808 86.93472037 165.731389 87.61328125 170.703125 C95.44839326 170.02533375 95.44839326 170.02533375 102.36328125 166.703125 C106.16066783 157.58939722 102.44074351 146.60734512 100.48828125 137.328125 C100.16516002 135.75544859 99.84282465 134.18261052 99.52124023 132.60961914 C97.41491749 122.35170726 95.19877426 112.11791199 92.96557617 101.88696289 C89.60695965 86.30525775 86.73090613 70.62365536 83.79312134 54.95828247 C83.08825817 51.20191625 82.3745245 47.44859133 81.61328125 43.703125 C81.28328125 43.703125 80.95328125 43.703125 80.61328125 43.703125 Z M23.61328125 60.703125 C23.28328125 62.353125 22.95328125 64.003125 22.61328125 65.703125 C15.10558894 66.07235577 15.10558894 66.07235577 12.61328125 64.203125 C12.28328125 63.708125 11.95328125 63.213125 11.61328125 62.703125 C12.059702 66.87035828 12.059702 66.87035828 13.86328125 70.578125 C16.33175038 72.16499801 17.73108399 72.19520746 20.61328125 71.703125 C23.07042494 70.24643738 23.07042494 70.24643738 24.61328125 67.703125 C24.94746054 64.0356037 24.94746054 64.0356037 24.61328125 60.703125 C24.28328125 60.703125 23.95328125 60.703125 23.61328125 60.703125 Z M-91.38671875 63.703125 C-90.93967889 68.18196196 -90.93967889 68.18196196 -88.38671875 71.703125 C-84.85776927 71.61568809 -84.85776927 71.61568809 -81.38671875 70.703125 C-80.72671875 69.713125 -80.06671875 68.723125 -79.38671875 67.703125 C-79.71671875 66.713125 -80.04671875 65.723125 -80.38671875 64.703125 C-80.71671875 65.033125 -81.04671875 65.363125 -81.38671875 65.703125 C-87.12282986 65.97627315 -87.12282986 65.97627315 -89.38671875 65.703125 C-90.04671875 65.043125 -90.70671875 64.383125 -91.38671875 63.703125 Z M-116.38671875 190.703125 C-115.13695119 194.35629171 -114.71573122 195.48378336 -111.38671875 197.703125 C-101.98231514 197.8807333 -92.36118607 195.97001891 -83.07421875 194.640625 C-81.73638031 194.45210328 -80.39848982 194.26395048 -79.06054688 194.07617188 C-75.83541015 193.62209125 -72.61083945 193.16435471 -69.38671875 192.703125 C-69.38671875 192.373125 -69.38671875 192.043125 -69.38671875 191.703125 C-73.82999005 191.55782408 -78.27334645 191.41556822 -82.71679688 191.27587891 C-84.22170506 191.22817011 -85.72658917 191.17969436 -87.23144531 191.13037109 C-96.95491898 190.81231354 -106.65686795 190.63336307 -116.38671875 190.703125 Z M-69.38671875 190.703125 C-69.38671875 191.033125 -69.38671875 191.363125 -69.38671875 191.703125 C-67.07671875 191.703125 -64.76671875 191.703125 -62.38671875 191.703125 C-62.38671875 191.373125 -62.38671875 191.043125 -62.38671875 190.703125 C-64.69671875 190.703125 -67.00671875 190.703125 -69.38671875 190.703125 Z " fill="#04C2CA" transform="translate(176.38671875,46.296875)"/>
<path d="M0 0 C7.8732971 5.50243307 11.99219975 11.97659924 15 21 C15.94480266 34.11822158 13.17196539 43.62793023 4.75 53.6875 C-4.29492166 61.29345685 -12.41721909 62.66975264 -24 62 C-33.14842716 60.89587948 -38.96863239 56.86966239 -45 50 C-50.62270975 42.19948014 -52.97129221 33.55874876 -52 24 C-50.37116958 14.41864456 -46.71345268 7.77018898 -39.125 1.6875 C-28.1254451 -5.85798906 -11.64919304 -7.29878644 0 0 Z " fill="#F5FBFB" transform="translate(102,149)"/>
<path d="M0 0 C8.82606689 5.75211534 15.68731061 13.8881984 19.61328125 23.703125 C23.90328125 23.373125 28.19328125 23.043125 32.61328125 22.703125 C29.18269076 26.13371549 23.89520817 25.82944974 19.2109375 26.00390625 C15.61328125 25.703125 15.61328125 25.703125 13.546875 24.30859375 C11.60376492 21.55343767 10.67669413 18.89336365 9.61328125 15.703125 C8.62328125 15.703125 7.63328125 15.703125 6.61328125 15.703125 C5.95328125 16.363125 5.29328125 17.023125 4.61328125 17.703125 C4.10539063 17.23261719 3.5975 16.76210938 3.07421875 16.27734375 C-0.89657739 12.68578095 -4.45081874 9.8008825 -9.38671875 7.703125 C-8.76023438 8.17363281 -8.13375 8.64414062 -7.48828125 9.12890625 C-6.26238281 10.06283203 -6.26238281 10.06283203 -5.01171875 11.015625 C-4.19960937 11.63050781 -3.3875 12.24539062 -2.55078125 12.87890625 C-0.38671875 14.703125 -0.38671875 14.703125 1.61328125 17.703125 C1.28328125 18.321875 0.95328125 18.940625 0.61328125 19.578125 C-0.5286511 21.61330844 -0.5286511 21.61330844 -0.38671875 23.703125 C0.27328125 23.703125 0.93328125 23.703125 1.61328125 23.703125 C1.94328125 25.353125 2.27328125 27.003125 2.61328125 28.703125 C-4.79159862 30.25966097 -12.05733452 31.05546792 -19.61328125 31.45703125 C-22.29336161 31.39582063 -22.29336161 31.39582063 -23.38671875 32.703125 C-29.95394728 34.48852419 -36.34104747 34.98334411 -43.11328125 34.8984375 C-44.42381973 34.89419266 -44.42381973 34.89419266 -45.76083374 34.88986206 C-48.51127689 34.87879803 -51.26137649 34.85372081 -54.01171875 34.828125 C-55.89322442 34.81807734 -57.77473526 34.80895464 -59.65625 34.80078125 C-64.23320232 34.77890412 -68.8099026 34.74447219 -73.38671875 34.703125 C-72.72671875 33.053125 -72.06671875 31.403125 -71.38671875 29.703125 C-71.05671875 30.363125 -70.72671875 31.023125 -70.38671875 31.703125 C-70.88171875 32.693125 -70.88171875 32.693125 -71.38671875 33.703125 C-47.74327934 33.74811727 -24.70742368 30.24823459 -1.38671875 26.703125 C-5.22276707 18.6472155 -13.19303168 13.71328805 -21.38671875 10.703125 C-31.73719822 7.78580839 -41.42426308 8.54528991 -51.24609375 13 C-56.7653508 16.11085397 -61.17699807 19.99158331 -65.38671875 24.703125 C-65.38671875 20.78399678 -63.81425735 19.66168766 -61.38671875 16.703125 C-61.38671875 16.043125 -61.38671875 15.383125 -61.38671875 14.703125 C-60.39671875 14.703125 -59.40671875 14.703125 -58.38671875 14.703125 C-58.38671875 14.043125 -58.38671875 13.383125 -58.38671875 12.703125 C-54.95151395 10.41298847 -53.40138775 10.52469527 -49.38671875 10.703125 C-49.38671875 10.043125 -49.38671875 9.383125 -49.38671875 8.703125 C-46.08671875 7.713125 -42.78671875 6.723125 -39.38671875 5.703125 C-39.38671875 4.713125 -39.38671875 3.723125 -39.38671875 2.703125 C-41.97443084 3.10030872 -44.55501694 3.51986362 -47.13671875 3.953125 C-47.86632812 4.06269531 -48.5959375 4.17226563 -49.34765625 4.28515625 C-53.97917895 5.08514653 -56.23720627 6.01878964 -59.38671875 9.703125 C-62.13671875 10.453125 -62.13671875 10.453125 -64.38671875 10.703125 C-62.7633207 8.99428495 -61.09352822 7.32865783 -59.38671875 5.703125 C-58.72671875 5.703125 -58.06671875 5.703125 -57.38671875 5.703125 C-57.38671875 5.043125 -57.38671875 4.383125 -57.38671875 3.703125 C-68.49822155 9.99265489 -76.51104076 17.86267197 -82.73046875 28.91796875 C-84.12893816 31.26964019 -85.34740196 32.91872281 -87.38671875 34.703125 C-87.38671875 33.713125 -87.38671875 32.723125 -87.38671875 31.703125 C-88.04671875 31.703125 -88.70671875 31.703125 -89.38671875 31.703125 C-89.71671875 33.023125 -90.04671875 34.343125 -90.38671875 35.703125 C-108.86671875 35.703125 -127.34671875 35.703125 -146.38671875 35.703125 C-146.51046875 40.240625 -146.63421875 44.778125 -146.76171875 49.453125 C-147.17680449 63.66724483 -147.7475542 77.87241757 -148.38671875 92.078125 C-148.42851257 93.02506226 -148.4703064 93.97199951 -148.5133667 94.94763184 C-149.29973556 112.67073242 -149.29973556 112.67073242 -150.16357422 121.3125 C-151.47573181 135.37010076 -151.51175956 149.59307788 -151.63671875 163.703125 C-151.65806885 164.97260986 -151.67941895 166.24209473 -151.70141602 167.55004883 C-151.73186082 175.83269662 -151.06086155 181.69191079 -146.38671875 188.703125 C-149.69267173 187.52242751 -151.66748677 185.71641342 -153.54937744 182.75991821 C-155.42305253 178.15753904 -154.86241629 173.03601889 -154.75390625 168.15234375 C-154.73915253 166.8857341 -154.7243988 165.61912445 -154.709198 164.31413269 C-154.48314587 148.50318781 -153.55526806 132.70991557 -152.64904785 116.92651367 C-152.42139039 112.92986045 -152.20342593 108.93267933 -151.984375 104.93554688 C-151.55250553 97.08644803 -151.10670944 89.23820004 -150.65539551 81.39019775 C-150.42665781 77.40997176 -150.20194876 73.42952821 -149.97815895 69.44902134 C-149.80187262 66.32307887 -149.62318064 63.19727721 -149.44384384 60.07150841 C-149.36010211 58.60503796 -149.27722318 57.13851794 -149.1952858 55.67194557 C-148.30339205 39.74245951 -148.30339205 39.74245951 -147.38671875 34.703125 C-144.85484997 33.43719061 -143.03697084 33.54394306 -140.20263672 33.49780273 C-138.5811824 33.4678849 -138.5811824 33.4678849 -136.92697144 33.43736267 C-135.75610992 33.42065018 -134.58524841 33.40393768 -133.37890625 33.38671875 C-132.18314972 33.36593765 -130.98739319 33.34515656 -129.75540161 33.32374573 C-125.92423411 33.25820211 -122.09299637 33.19934282 -118.26171875 33.140625 C-115.66926348 33.09744437 -113.07681539 33.05383023 -110.484375 33.00976562 C-104.11856448 32.90251581 -97.75268362 32.8007584 -91.38671875 32.703125 C-90.58790283 31.06633789 -90.58790283 31.06633789 -89.77294922 29.39648438 C-89.05851235 27.94649428 -88.34381766 26.49663119 -87.62890625 25.046875 C-87.10526489 23.97131348 -87.10526489 23.97131348 -86.57104492 22.87402344 C-78.88353214 7.3390265 -66.45241357 -2.49185877 -50.28515625 -8.4375 C-32.43972896 -12.37136173 -15.36467894 -9.48584588 0 0 Z " fill="#1CC4CB" transform="translate(176.38671875,46.296875)"/>
<path d="M0 0 C3.96 0 7.92 0 12 0 C12 7.92 12 15.84 12 24 C12.66 24 13.32 24 14 24 C14.27706787 23.26555664 14.55413574 22.53111328 14.83959961 21.77441406 C15.9125392 19.20911099 17.11182278 16.97323811 18.56640625 14.609375 C19.05173828 13.81789062 19.53707031 13.02640625 20.03710938 12.2109375 C20.54048828 11.39882812 21.04386719 10.58671875 21.5625 9.75 C22.06974609 8.92242187 22.57699219 8.09484375 23.09960938 7.2421875 C26.84948028 1.15051972 26.84948028 1.15051972 28 0 C30.53049402 -0.07313567 33.03304837 -0.09247527 35.5625 -0.0625 C36.62887695 -0.05573242 36.62887695 -0.05573242 37.71679688 -0.04882812 C39.47790013 -0.03700864 41.23896036 -0.01907263 43 0 C38.81436287 7.96838525 33.82360084 15.27326272 28.64453125 22.62304688 C28.03222656 23.51701172 27.41992188 24.41097656 26.7890625 25.33203125 C25.94915771 26.53436401 25.94915771 26.53436401 25.09228516 27.76098633 C23.80514632 29.90379691 23.80514632 29.90379691 24.20483398 32.10668945 C25.48990436 35.16647476 27.47396334 37.72499972 29.4375 40.375 C30.33985192 41.61718156 31.24219541 42.85936925 32.14453125 44.1015625 C33.0961351 45.40120209 34.04796137 46.70067887 35 48 C36.88207671 50.57827405 38.75544593 53.16263744 40.625 55.75 C41.06255615 56.34603027 41.5001123 56.94206055 41.95092773 57.55615234 C45 61.7741686 45 61.7741686 45 64 C39.55990027 65.41542674 34.28145318 66.39254013 29 64 C22.67937257 57.97139192 17.88893716 49.77956516 14 42 C14 41.34 14 40.68 14 40 C13.34 40 12.68 40 12 40 C12 47.92 12 55.84 12 64 C8.04 64 4.08 64 0 64 C0 42.88 0 21.76 0 0 Z " fill="#F8FDFC" transform="translate(132,146)"/>
<path d="M0 0 C4.36211813 3.24622745 8.92063229 7.13200343 10.36328125 12.52734375 C11.43343792 20.68890008 10.47153993 26.14718604 5.6875 33 C2.31943692 36.62776914 -0.84841288 37.81427009 -5.73046875 38.43359375 C-10.90716168 38.6136052 -15.07285201 38.52195705 -19.875 36.5 C-26.70675499 29.4930718 -27.8686902 24.49550361 -27.87890625 14.5859375 C-26.7908673 7.69752542 -22.58873612 4.01452749 -17.3125 0 C-12.36213871 -2.47518065 -5.13676126 -1.55072038 0 0 Z " fill="#05C1C9" transform="translate(92.3125,159)"/>
<path d="M0 0 C1.65 0 3.3 0 5 0 C8.21456162 16.48531837 11.41865288 32.97262777 14.59765625 49.46484375 C14.82298035 50.63347961 15.04830444 51.80211548 15.28045654 53.00616455 C16.45021775 59.07399761 17.61873713 65.14206669 18.78564453 71.21044922 C21.05798315 83.01589869 23.35192644 94.81622943 25.70703125 106.60546875 C26.13046717 108.73386761 26.55380933 110.86228512 26.97705078 112.99072266 C27.76277865 116.94132506 28.55810765 120.88982703 29.35888672 124.83740234 C29.71229969 126.61157687 30.06534872 128.38582395 30.41796875 130.16015625 C30.57989212 130.94400192 30.74181549 131.7278476 30.90864563 132.53544617 C32.74211107 141.86754924 32.43501988 148.89637139 27 157 C21.75360195 163.31371685 12.66376777 163.95494076 5 165 C3.33385667 165.04176349 1.66556372 165.06062397 0 165 C-0.226875 165.5775 -0.45375 166.155 -0.6875 166.75 C-2.91048868 170.56083774 -5.85788992 172.61929664 -10 174 C-11.55751938 174.09031214 -13.11857564 174.12511101 -14.67871094 174.12597656 C-16.1134375 174.13201904 -16.1134375 174.13201904 -17.57714844 174.13818359 C-18.6190332 174.13898926 -19.66091797 174.13979492 -20.734375 174.140625 C-22.98406046 174.1549436 -25.23373556 174.17096574 -27.48339844 174.18847656 C-29.26127747 174.20207214 -29.26127747 174.20207214 -31.07507324 174.21594238 C-54.63571169 174.4342921 -77.44865058 175.97759647 -100.70599365 179.64276123 C-105.51073893 180.39098989 -110.32323432 181.08779646 -115.134552 181.79226685 C-118.88231302 182.3415968 -122.62869652 182.89704295 -126.37207031 183.47558594 C-127.04537888 183.5782225 -127.71868744 183.68085907 -128.41239929 183.78660583 C-130.21425484 184.06166694 -132.01547987 184.34084968 -133.81665039 184.62036133 C-136.91273394 184.98959286 -139.8854979 185.06914577 -143 185 C-139.91190305 183.23537317 -138.76687864 183 -135 183 C-135 182.34 -135 181.68 -135 181 C-134.09644775 180.91435791 -133.19289551 180.82871582 -132.26196289 180.74047852 C-128.920131 180.42160389 -125.57873236 180.09876406 -122.23754883 179.77319336 C-120.78946093 179.6329195 -119.34121738 179.49424314 -117.89282227 179.35717773 C-115.81483974 179.16025637 -113.73747879 178.95765731 -111.66015625 178.75390625 C-109.78275757 178.57323608 -109.78275757 178.57323608 -107.86743164 178.38891602 C-105.10746047 178.30934543 -105.10746047 178.30934543 -104 177 C-102.48914437 176.78514928 -100.96978887 176.62927515 -99.44921875 176.5 C-98.52302734 176.4175 -97.59683594 176.335 -96.64257812 176.25 C-95.66740234 176.1675 -94.69222656 176.085 -93.6875 176 C-91.77449106 175.83621061 -89.86171719 175.66964643 -87.94921875 175.5 C-87.09674561 175.4278125 -86.24427246 175.355625 -85.3659668 175.28125 C-83.07786082 175.06779804 -83.07786082 175.06779804 -81.21948242 174.51634216 C-71.85382917 172.33750911 -61.60916779 172.81664749 -52.04296875 172.68359375 C-50.77399246 172.66281265 -49.50501617 172.64203156 -48.19758606 172.62062073 C-44.87200874 172.56685478 -41.54641723 172.51645085 -38.22076416 172.46777344 C-34.80793723 172.41695958 -31.39518427 172.36159065 -27.98242188 172.30664062 C-21.32167403 172.20029686 -14.66086975 172.09839577 -8 172 C-7.814375 171.09193604 -7.814375 171.09193604 -7.625 170.16552734 C-6.61620844 166.6702222 -4.83938359 165.22566266 -2 163 C0.96069163 162.07478387 3.92320503 161.7146462 7 161.375 C15.77710023 160.41626377 15.77710023 160.41626377 22.58203125 155.08984375 C28.15633698 145.33923278 25.91662978 136.3699809 24.06835938 125.77587891 C23.32204668 121.45628467 22.82946809 117.40540777 23 113 C22.34 113 21.68 113 21 113 C20.88930176 112.24904053 20.77860352 111.49808105 20.66455078 110.72436523 C20.1561938 107.2946748 19.64066136 103.86609949 19.125 100.4375 C18.95097656 99.25607422 18.77695312 98.07464844 18.59765625 96.85742188 C17.72381829 91.08038203 16.71340536 85.58121914 15 80 C14.6547112 78.10986352 14.34090944 76.21363873 14.0625 74.3125 C13.41388559 70.22318886 12.6088862 66.25569717 11.5625 62.25 C10.16412505 56.87433752 9.11499308 51.46390339 8.12744141 46.00195312 C7.34518224 41.71946764 6.44710787 37.48629432 5.4375 33.25 C4.22571011 28.14407282 3.28845939 23.04212439 2.47265625 17.859375 C1.88399197 14.29819934 1.14250667 10.77862647 0.3671875 7.25390625 C-0.03228444 4.80182851 -0.06123829 2.48015091 0 0 Z " fill="#57B3B6" transform="translate(262,63)"/>
<path d="M0 0 C9.4358664 -1.06821129 16.15769013 3.82099456 23.625 9.125 C30.43243581 14.62001125 35.76728289 21.91820722 39 30 C43.29 29.67 47.58 29.34 52 29 C48.56940951 32.43059049 43.28192692 32.12632474 38.59765625 32.30078125 C35 32 35 32 32.93359375 30.60546875 C30.99048367 27.85031267 30.06341288 25.19023865 29 22 C28.01 22 27.02 22 26 22 C25.34 22.66 24.68 23.32 24 24 C23.49210937 23.52949219 22.98421875 23.05898438 22.4609375 22.57421875 C18.49014136 18.98265595 14.93590001 16.0977575 10 14 C10.62648438 14.47050781 11.25296875 14.94101562 11.8984375 15.42578125 C12.71570313 16.04839844 13.53296875 16.67101562 14.375 17.3125 C15.18710938 17.92738281 15.99921875 18.54226562 16.8359375 19.17578125 C19 21 19 21 21 24 C20.505 24.928125 20.505 24.928125 20 25.875 C18.85806765 27.91018344 18.85806765 27.91018344 19 30 C19.66 30 20.32 30 21 30 C21.495 32.475 21.495 32.475 22 35 C14.59512013 36.55653597 7.32938423 37.35234292 -0.2265625 37.75390625 C-2.90664286 37.69269563 -2.90664286 37.69269563 -4 39 C-10.56722853 40.78539919 -16.95432872 41.28021911 -23.7265625 41.1953125 C-25.03710098 41.19106766 -25.03710098 41.19106766 -26.37411499 41.18673706 C-29.12455814 41.17567303 -31.87465774 41.15059581 -34.625 41.125 C-36.50650567 41.11495234 -38.38801651 41.10582964 -40.26953125 41.09765625 C-44.84648357 41.07577912 -49.42318385 41.04134719 -54 41 C-53.34 39.35 -52.68 37.7 -52 36 C-51.67 36.66 -51.34 37.32 -51 38 C-51.33 38.66 -51.66 39.32 -52 40 C-28.35656059 40.04499227 -5.32070493 36.54510959 18 33 C14.16395168 24.9440905 6.19368707 20.01016305 -2 17 C-12.35047947 14.08268339 -22.03754433 14.84216491 -31.859375 19.296875 C-37.37863205 22.40772897 -41.79027932 26.28845831 -46 31 C-46 27.08087178 -44.4275386 25.95856266 -42 23 C-42 22.34 -42 21.68 -42 21 C-41.01 21 -40.02 21 -39 21 C-39 20.34 -39 19.68 -39 19 C-35.5647952 16.70986347 -34.014669 16.82157027 -30 17 C-30 16.34 -30 15.68 -30 15 C-25.05 13.515 -25.05 13.515 -20 12 C-20 11.01 -20 10.02 -20 9 C-22.58771209 9.39718372 -25.16829819 9.81673862 -27.75 10.25 C-28.47960937 10.35957031 -29.20921875 10.46914063 -29.9609375 10.58203125 C-34.5924602 11.38202153 -36.85048752 12.31566464 -40 16 C-42.75 16.75 -42.75 16.75 -45 17 C-43.37660195 15.29115995 -41.70680947 13.62553283 -40 12 C-39.34 12 -38.68 12 -38 12 C-38 11.01 -38 10.02 -38 9 C-36.10908264 8.15557119 -34.21202485 7.32488413 -32.3125 6.5 C-31.25675781 6.0359375 -30.20101562 5.571875 -29.11328125 5.09375 C-26.14372184 4.05049199 -24.10804937 3.76934699 -21 4 C-24 6 -24 6 -26 7 C-25.35973877 6.99476318 -24.71947754 6.98952637 -24.05981445 6.98413086 C-21.14405305 6.96327571 -18.22830738 6.95031271 -15.3125 6.9375 C-13.80139648 6.92493164 -13.80139648 6.92493164 -12.25976562 6.91210938 C-11.28330078 6.90888672 -10.30683594 6.90566406 -9.30078125 6.90234375 C-8.40528564 6.89710693 -7.50979004 6.89187012 -6.5871582 6.88647461 C-3.96358241 7.00159802 -1.55706947 7.41765715 1 8 C0.01 7.34 -0.98 6.68 -2 6 C-1.01 6 -0.02 6 1 6 C0.505 3.03 0.505 3.03 0 0 Z " fill="#27C3C9" transform="translate(157,40)"/>
<path d="M0 0 C0 0.99 0 1.98 0 3 C-6.625 6 -6.625 6 -10 6 C-10 6.66 -10 7.32 -10 8 C-12.97 8.66 -15.94 9.32 -19 10 C-19 10.66 -19 11.32 -19 12 C-19.99 12 -20.98 12 -22 12 C-21.505 13.485 -21.505 13.485 -21 15 C-21.763125 15.70125 -22.52625 16.4025 -23.3125 17.125 C-26.0884077 19.82170498 -26.0884077 19.82170498 -27.5 23 C-29.1987856 26.3975712 -31.32533975 28.32533975 -34 31 C-40.38467671 40.38923045 -41.48714223 50.87629192 -42 62 C-44.64 62 -47.28 62 -50 62 C-50 59.36 -50 56.72 -50 54 C-51.65 54.99 -53.3 55.98 -55 57 C-54.67 57.33 -54.34 57.66 -54 58 C-53.95907063 60.33297433 -53.95758277 62.66705225 -54 65 C-53.01 65 -52.02 65 -51 65 C-50.67 66.98 -50.34 68.96 -50 71 C-52.5 69.625 -52.5 69.625 -55 68 C-55 67.34 -55 66.68 -55 66 C-55.66 66 -56.32 66 -57 66 C-57.10867302 64.41820385 -57.18589827 62.83422847 -57.25 61.25 C-57.29640625 60.36828125 -57.3428125 59.4865625 -57.390625 58.578125 C-56.88225477 55.22288146 -55.36875899 54.34615633 -53 52 C-52.23718418 49.27722687 -52.23718418 49.27722687 -52 46.3125 C-51.18648239 40.5622516 -49.7261131 36.10294297 -47 31 C-46.505 30.05253906 -46.01 29.10507813 -45.5 28.12890625 C-40.09469602 18.30676823 -31.14980508 4.76548513 -19.73828125 1.31640625 C-19.16464844 1.21199219 -18.59101562 1.10757813 -18 1 C-18 1.66 -18 2.32 -18 3 C-19.62626404 4.38232443 -21.2925002 5.71937515 -23 7 C-22.01 7 -21.02 7 -20 7 C-19.67 6.01 -19.34 5.02 -19 4 C-12.46955917 0.73477958 -7.23458334 -0.14185458 0 0 Z " fill="#05BFC7" transform="translate(137,49)"/>
<path d="M0 0 C3.96 0 7.92 0 12 0 C12 21.12 12 42.24 12 64 C8.04 64 4.08 64 0 64 C0 42.88 0 21.76 0 0 Z " fill="#FBFEFE" transform="translate(189,146)"/>
<path d="M0 0 C2.70979124 0.08750996 5.41650748 0.19444893 8.125 0.3125 C8.88554688 0.33505859 9.64609375 0.35761719 10.4296875 0.38085938 C19.67534666 0.81923115 25.80278071 5.32510458 32 12 C33.5625 15.5 33.5625 15.5 34 18 C34.66 18 35.32 18 36 18 C39.45693108 27.04014913 39.10827371 37.82867388 36 47 C35.35781948 48.34529788 34.69694759 49.68224195 34 51 C33.34 51 32.68 51 32 51 C31.773125 51.556875 31.54625 52.11375 31.3125 52.6875 C29.62449964 55.66159588 27.53323483 57.72008865 25 60 C24.34 60 23.68 60 23 60 C22.67 60.99 22.34 61.98 22 63 C17.56971812 64.65049717 13.70949382 65.22973141 9 65 C10.33333333 64 11.66666667 63 13 62 C13.70125 61.443125 14.4025 60.88625 15.125 60.3125 C17 59 17 59 19 59 C19.2784375 58.41734375 19.556875 57.8346875 19.84375 57.234375 C20.93918445 55.11752193 22.16434618 53.22090381 23.5 51.25 C28.38650681 43.39411147 28.86264652 35.07416784 28 26 C26.0936072 17.88356119 21.64032625 11.27994283 14.828125 6.46484375 C10.03968504 3.63305943 5.43945278 2.08789056 0 1 C0 0.67 0 0.34 0 0 Z " fill="#329B9E" transform="translate(88,144)"/>
<path d="M0 0 C2.31 0 4.62 0 7 0 C6.70640016 4.69759745 4.42128182 7.27048613 1.6171875 10.8125 C-0.03265531 13.04417144 -1.32715185 15.29940473 -2.625 17.75 C-4.39276728 21.05816898 -6.18423738 23.47552317 -9 26 C-11.25145666 28.72971446 -11.25145666 28.72971446 -10.875 31.375 C-9.81785035 34.54644895 -8.11808456 36.43262478 -6 39 C-5.29788106 40.65204456 -4.63028587 42.31923769 -4 44 C-2.49216648 46.94386544 -1.33858295 48.74377506 1.3125 50.75 C5.06755161 53.89376414 7.60780268 57.74172436 10 62 C10 62.66 10 63.32 10 64 C6.84678881 64.57916124 4.14391893 64.69358598 1 64 C-2.03678289 61.52632917 -3.89771886 58.27301256 -6 55 C-7.39429763 52.95621072 -8.80273637 50.92256351 -10.21142578 48.88867188 C-11.1781829 47.48794539 -12.13903804 46.0831227 -13.09326172 44.67382812 C-13.54072754 44.01318359 -13.98819336 43.35253906 -14.44921875 42.671875 C-14.8776709 42.03830078 -15.30612305 41.40472656 -15.74755859 40.75195312 C-17.11582581 38.77722958 -17.11582581 38.77722958 -19.39453125 36.265625 C-21 34 -21 34 -20.7890625 32.17041016 C-19.82580845 29.52086543 -18.50822972 27.37862116 -16.98046875 25.0078125 C-16.06491211 23.57888672 -16.06491211 23.57888672 -15.13085938 22.12109375 C-14.16889648 20.63802734 -14.16889648 20.63802734 -13.1875 19.125 C-12.55779297 18.14402344 -11.92808594 17.16304687 -11.27929688 16.15234375 C-10.06414998 14.26268195 -8.84414507 12.3761328 -7.61865234 10.49316406 C-6.64405914 8.99202593 -5.67803458 7.48520165 -4.72900391 5.96777344 C-3.87016351 4.61162583 -2.94401631 3.29829749 -2 2 C-1.34 2 -0.68 2 0 2 C0 1.34 0 0.68 0 0 Z " fill="#329A9D" transform="translate(176,145)"/>
<path d="M0 0 C2.97 0 5.94 0 9 0 C9 21.12 9 42.24 9 64 C6.36 64 3.72 64 1 64 C0.67 42.88 0.34 21.76 0 0 Z " fill="#2D999C" transform="translate(201,145)"/>
<path d="M0 0 C1.65 0 3.3 0 5 0 C5.30468218 1.565675 5.60935415 3.13135199 5.91398621 4.69703674 C6.19004364 6.1157018 6.46617965 7.53435157 6.74238586 8.95298767 C7.52202424 12.95845468 8.29981591 16.96426761 9.07446289 20.97070312 C10.47970708 28.23142061 11.88739154 35.49092863 13.36578369 42.73716736 C13.92989363 45.50446816 14.48584566 48.27338032 15.04119873 51.04244995 C15.42644641 52.94540024 15.82364528 54.84591881 16.22119141 56.74633789 C17.55405266 63.41840927 18.23405012 69.57217012 17.89477539 76.37890625 C18.01325083 79.33007169 18.86009151 81.29415933 20 84 C20.37890625 86.38427734 20.37890625 86.38427734 20.5625 88.8359375 C20.63726562 89.73570312 20.71203125 90.63546875 20.7890625 91.5625 C20.85867188 92.490625 20.92828125 93.41875 21 94.375 C21.46703664 100.55026223 22.24529956 106.03917938 24 112 C24.94983824 117.22134919 25.71609672 122.47417881 26.5 127.72265625 C26.7475 129.29466797 26.7475 129.29466797 27 130.8984375 C27.144375 131.85411621 27.28875 132.80979492 27.4375 133.79443359 C27.623125 134.52227051 27.80875 135.25010742 28 136 C28.66 136.33 29.32 136.66 30 137 C30 140.96 30 144.92 30 149 C29.505 148.01 29.505 148.01 29 147 C28.34 147 27.68 147 27 147 C23.62473743 123.21122564 23.62473743 123.21122564 23 113 C22.34 113 21.68 113 21 113 C20.83395264 111.87356079 20.83395264 111.87356079 20.66455078 110.72436523 C20.1561938 107.2946748 19.64066136 103.86609949 19.125 100.4375 C18.95097656 99.25607422 18.77695312 98.07464844 18.59765625 96.85742188 C17.72381829 91.08038203 16.71340536 85.58121914 15 80 C14.6547112 78.10986352 14.34090944 76.21363873 14.0625 74.3125 C13.41388559 70.22318886 12.6088862 66.25569717 11.5625 62.25 C10.16412505 56.87433752 9.11499308 51.46390339 8.12744141 46.00195312 C7.34518224 41.71946764 6.44710787 37.48629432 5.4375 33.25 C4.22571011 28.14407282 3.28845939 23.04212439 2.47265625 17.859375 C1.88399197 14.29819934 1.14250667 10.77862647 0.3671875 7.25390625 C-0.03228444 4.80182851 -0.06123829 2.48015091 0 0 Z " fill="#2F9FA2" transform="translate(262,63)"/>
<path d="M0 0 C10.66843198 1.5483388 18.68178486 10.91399409 25 19 C31.20304716 28.36333645 34.17429875 37.67500027 34.69140625 48.84765625 C34.84416016 49.91306641 34.84416016 49.91306641 35 51 C35.99 51.495 35.99 51.495 37 52 C36.67 54.31 36.34 56.62 36 59 C34.68 59 33.36 59 32 59 C31.95101562 58.15695313 31.90203125 57.31390625 31.8515625 56.4453125 C31.77679688 55.34960938 31.70203125 54.25390625 31.625 53.125 C31.55539063 52.03445312 31.48578125 50.94390625 31.4140625 49.8203125 C31.26746509 46.86953526 31.26746509 46.86953526 29 45 C28.34 45 27.68 45 27 45 C27.0928125 46.5778125 27.0928125 46.5778125 27.1875 48.1875 C27 52 27 52 25.5 54.4375 C23.35931562 58.09450248 23.78671131 60.80532239 24 65 C22 64 22 64 21.375 62.375 C20.87275062 59.19408728 20.82144783 56.21393904 21 53 C21.66 52.34 22.32 51.68 23 51 C22.81870815 48.07008981 22.53430659 45.27307887 22.125 42.375 C22.02058594 41.57320312 21.91617188 40.77140625 21.80859375 39.9453125 C21.54890412 37.96222803 21.27571688 35.98091972 21 34 C20.34 34 19.68 34 19 34 C18.32320342 32.274773 17.65898 30.54461061 17 28.8125 C16.62875 27.84957031 16.2575 26.88664062 15.875 25.89453125 C15.02363228 23.07817642 14.82927353 20.91835561 15 18 C14.34 18 13.68 18 13 18 C12.375 16.1875 12.375 16.1875 12 14 C12.66 13.01 13.32 12.02 14 11 C10.04850342 7.54244049 6.0588453 4.69025303 1.5390625 2.015625 C1.03117188 1.68046875 0.52328125 1.3453125 0 1 C0 0.67 0 0.34 0 0 Z " fill="#05BFC7" transform="translate(163,52)"/>
<path d="M0 0 C1.32 0 2.64 0 4 0 C4.00808685 0.5902446 4.01617371 1.1804892 4.02450562 1.78862 C4.11062433 7.93701568 4.21013127 14.08509169 4.31738281 20.2331543 C4.35564405 22.52704496 4.39050189 24.82099503 4.421875 27.11499023 C4.46758706 30.4141156 4.52557222 33.71283296 4.5859375 37.01171875 C4.59748871 38.03585373 4.60903992 39.05998871 4.62094116 40.11515808 C4.64081085 41.07577652 4.66068054 42.03639496 4.68115234 43.02612305 C4.69447601 43.86773483 4.70779968 44.70934662 4.7215271 45.57646179 C4.88776634 48.04015632 4.88776634 48.04015632 5.98278809 50.29919434 C7.33726748 53.89548098 7.4429202 57.38966737 7.59423828 61.18676758 C7.65319778 62.40218231 7.65319778 62.40218231 7.71334839 63.64215088 C7.84066409 66.30929496 7.95555225 68.97681994 8.0703125 71.64453125 C8.15636866 73.49830132 8.24320196 75.35203546 8.33078003 77.20573425 C8.55880983 82.07648159 8.77629311 86.94764462 8.99157715 91.81896973 C9.21327253 96.79301899 9.44494769 101.7666023 9.67578125 106.74023438 C10.12695125 116.49305963 10.56697989 126.24635323 11 136 C9.68 136.33 8.36 136.66 7 137 C6.9498877 136.04150146 6.89977539 135.08300293 6.84814453 134.09545898 C5.95245751 117.0173804 5.03450401 99.94148776 3.9375 82.875 C3.85838379 81.63419678 3.77926758 80.39339355 3.69775391 79.11499023 C3.36749447 74.06659051 3.015425 69.02987619 2.5078125 63.99609375 C1.73103908 55.73164735 1.44029621 47.43086494 1.07006836 39.14038086 C0.93827247 36.20470631 0.80043825 33.26935748 0.66210938 30.33398438 C0.19694201 20.21362467 -0.14632377 10.13319196 0 0 Z " fill="#1FA4A9" transform="translate(252,82)"/>
<path d="M0 0 C1.32742226 6.36451563 2.11620256 12.45654015 2.00830078 18.96728516 C1.960944 26.13661893 2.26820402 33.23736139 2.73312759 40.39357376 C2.9724588 44.08434655 3.19518255 47.77614747 3.42089844 51.46777344 C3.46866739 52.24225893 3.51643635 53.01674442 3.56565285 53.81469917 C4.1147792 62.76190711 4.59524798 71.71266328 5.0703125 80.6640625 C5.1138662 81.48379295 5.15741989 82.30352341 5.2022934 83.14809418 C5.42249803 87.29740681 5.64160991 91.44677571 5.85986328 95.59619141 C6.08407325 99.85659638 6.31123353 104.11683909 6.53901863 108.37705421 C6.71717988 111.71764654 6.89343302 115.05833754 7.06914902 118.3990593 C7.15219401 119.97223875 7.23590878 121.54538301 7.32034683 123.11848831 C7.43708725 125.29715359 7.55114093 127.47594431 7.66455078 129.65478516 C7.76209152 131.49950912 7.76209152 131.49950912 7.86160278 133.38150024 C8.00998654 137.26110565 8.02298514 141.11798755 8 145 C9.93922422 144.54901762 11.87633594 144.08894441 13.8125 143.625 C14.89144531 143.36976563 15.97039062 143.11453125 17.08203125 142.8515625 C20.15533343 142.11267119 20.15533343 142.11267119 23 140 C21.125 143.875 21.125 143.875 20 145 C17.65012738 145.23527773 15.29443961 145.41386417 12.9375 145.5625 C11.64714844 145.64628906 10.35679687 145.73007813 9.02734375 145.81640625 C8.02832031 145.87699219 7.02929688 145.93757812 6 146 C5.95432892 144.97127274 5.90865784 143.94254547 5.86160278 142.88264465 C5.42995186 133.18582911 4.98902335 123.48947396 4.53901863 113.79349232 C4.30796721 108.80873302 4.08018196 103.82386917 3.85986328 98.83862305 C3.64710623 94.0272031 3.42576681 89.2162476 3.19848251 84.40549278 C3.11329529 82.57044078 3.03119651 80.7352427 2.9522438 78.89991188 C2.84109264 76.3284083 2.71895094 73.75764419 2.59423828 71.18676758 C2.56402588 70.42863266 2.53381348 69.67049774 2.50268555 68.88938904 C2.29288218 64.82512357 1.58150458 61.72159404 0 58 C-0.24050903 55.57646179 -0.24050903 55.57646179 -0.22705078 53.02612305 C-0.22680908 52.05219604 -0.22656738 51.07826904 -0.22631836 50.0748291 C-0.21097046 48.55858948 -0.21097046 48.55858948 -0.1953125 47.01171875 C-0.19329834 46.0731604 -0.19128418 45.13460205 -0.18920898 44.16760254 C-0.17877456 40.67418504 -0.150852 37.18083742 -0.125 33.6875 C-0.08375 25.870625 -0.0425 18.05375 0 10 C-18.48 10 -36.96 10 -56 10 C-56 9.34 -56 8.68 -56 8 C-53.36 8 -50.72 8 -48 8 C-48 7.34 -48 6.68 -48 6 C-41.62641289 5.03794912 -35.44070471 4.89344422 -29 5 C-29 5.33 -29 5.66 -29 6 C-30.65 6.33 -32.3 6.66 -34 7 C-32.61494263 7.03758423 -32.61494263 7.03758423 -31.2019043 7.07592773 C-27.77453584 7.17109045 -24.34733539 7.27032214 -20.92016602 7.37231445 C-19.43713985 7.4156133 -17.95406546 7.45729199 -16.47094727 7.49731445 C-14.33855661 7.55513958 -12.20640758 7.61879832 -10.07421875 7.68359375 C-8.79119873 7.72025146 -7.50817871 7.75690918 -6.1862793 7.79467773 C-3 8 -3 8 0 9 C-0.66 7.02 -1.32 5.04 -2 3 C-2.65484375 3.06058594 -3.3096875 3.12117188 -3.984375 3.18359375 C-10.98663453 3.82645656 -17.99184389 4.42515997 -25 5 C-21.47765104 2.65176736 -19.11393342 2.45145613 -14.9375 1.9375 C-9.68771819 1.28195449 -5.27685967 -0.11471434 0 0 Z " fill="#B6DFE1" transform="translate(256,72)"/>
<path d="M0 0 C9.4358664 -1.06821129 16.15769013 3.82099456 23.625 9.125 C30.43243581 14.62001125 35.76728289 21.91820722 39 30 C45.435 29.505 45.435 29.505 52 29 C48.56940951 32.43059049 43.28192692 32.12632474 38.59765625 32.30078125 C35 32 35 32 32.93359375 30.60546875 C30.99048367 27.85031267 30.06341288 25.19023865 29 22 C28.01 22 27.02 22 26 22 C25.34 22.66 24.68 23.32 24 24 C23.50371094 23.54109375 23.00742188 23.0821875 22.49609375 22.609375 C14.21019441 15.12533689 6.69411412 12.02329843 -4 9 C-2.68 8.67 -1.36 8.34 0 8 C-0.66 7.67 -1.32 7.34 -2 7 C-1.01 6.67 -0.02 6.34 1 6 C0.67 4.02 0.34 2.04 0 0 Z " fill="#1EBAC1" transform="translate(157,40)"/>
<path d="M0 0 C1.09570312 0.00902344 2.19140625 0.01804688 3.3203125 0.02734375 C4.16335937 0.03894531 5.00640625 0.05054688 5.875 0.0625 C5.28976563 0.32804688 4.70453125 0.59359375 4.1015625 0.8671875 C1.1466702 2.4534981 -1.07413088 4.57065875 -3.5390625 6.8203125 C-5.125 8.0625 -5.125 8.0625 -7.125 8.0625 C-9.06510114 13.88280342 -8.89106035 20.03448412 -8.125 26.0625 C-5.27071243 31.60608742 -0.33354348 34.88655885 4.875 38.0625 C4.875 38.3925 4.875 38.7225 4.875 39.0625 C-5.71172377 39.67920236 -5.71172377 39.67920236 -10.5625 37.5625 C-16.43282103 31.83535753 -18.44816131 27.84736639 -18.6875 19.4375 C-18.69425842 12.88183354 -17.12498392 9.0840149 -12.4921875 4.41796875 C-7.8624692 0.79418401 -5.85873881 -0.06232701 0 0 Z " fill="#349A9D" transform="translate(83.125,157.9375)"/>
<path d="M0 0 C0.6875 1.625 0.6875 1.625 1 4 C0.01 5.98 -0.98 7.96 -2 10 C-20.48 10 -38.96 10 -58 10 C-58.12375 14.5375 -58.2475 19.075 -58.375 23.75 C-58.79008574 37.96411983 -59.36083545 52.16929257 -60 66.375 C-60.04179382 67.32193726 -60.08358765 68.26887451 -60.12664795 69.24450684 C-60.91301681 86.96760742 -60.91301681 86.96760742 -61.77685547 95.609375 C-63.08901306 109.66697576 -63.12504081 123.88995288 -63.25 138 C-63.2713501 139.26948486 -63.2927002 140.53896973 -63.31469727 141.84692383 C-63.34514207 150.12957162 -62.6741428 155.98878579 -58 163 C-61.30595298 161.81930251 -63.28076802 160.01328842 -65.16265869 157.05679321 C-67.03633378 152.45441404 -66.47569754 147.33289389 -66.3671875 142.44921875 C-66.35243378 141.1826091 -66.33768005 139.91599945 -66.32247925 138.61100769 C-66.09642712 122.80006281 -65.16854931 107.00679057 -64.2623291 91.22338867 C-64.03467164 87.22673545 -63.81670718 83.22955433 -63.59765625 79.23242188 C-63.16578678 71.38332303 -62.71999069 63.53507504 -62.26867676 55.68707275 C-62.03993906 51.70684676 -61.81523001 47.72640321 -61.5914402 43.74589634 C-61.41515387 40.61995387 -61.23646189 37.49415221 -61.05712509 34.36838341 C-60.97338336 32.90191296 -60.89050443 31.43539294 -60.80856705 29.96882057 C-59.9166733 14.03933451 -59.9166733 14.03933451 -59 9 C-56.46813122 7.73406561 -54.65025209 7.84081806 -51.81591797 7.79467773 C-50.19446365 7.7647599 -50.19446365 7.7647599 -48.54025269 7.73423767 C-47.36939117 7.71752518 -46.19852966 7.70081268 -44.9921875 7.68359375 C-43.79643097 7.66281265 -42.60067444 7.64203156 -41.36868286 7.62062073 C-37.53751536 7.55507711 -33.70627762 7.49621782 -29.875 7.4375 C-27.28254473 7.39431937 -24.69009664 7.35070523 -22.09765625 7.30664062 C-15.73184573 7.19939081 -9.36596487 7.0976334 -3 7 C-1.515 3.535 -1.515 3.535 0 0 Z " fill="#B5EBED" transform="translate(88,72)"/>
<path d="M0 0 C0.99 0.495 0.99 0.495 2 1 C3.32 28.39 4.64 55.78 6 84 C4.02 84.495 4.02 84.495 2 85 C1.07443926 74.99038064 0.79432518 65.02325969 0.68359375 54.98046875 C0.66296409 53.38478634 0.64196634 51.78910866 0.62062073 50.19343567 C0.56601949 46.03929524 0.51634314 41.88511073 0.46777344 37.730896 C0.4170993 33.47355329 0.36165552 29.21627281 0.30664062 24.95898438 C0.19981952 16.63937588 0.09821315 8.31971455 0 0 Z " fill="#419B9C" transform="translate(257,134)"/>
<path d="M0 0 C12.21 0 24.42 0 37 0 C37 1.98 37 3.96 37 6 C24.79 6 12.58 6 0 6 C0 4.02 0 2.04 0 0 Z " fill="#EBFAFB" transform="translate(64,127)"/>
<path d="M0 0 C2.16872703 3.96264623 2.57608759 7.74919973 3 12.1875 C3.64245343 18.25511568 4.4937078 24.07525067 6 30 C6.14308594 30.71542969 6.28617187 31.43085938 6.43359375 32.16796875 C6.62050781 32.77253906 6.80742187 33.37710938 7 34 C7.66 34.33 8.32 34.66 9 35 C8.96519531 35.88751953 8.96519531 35.88751953 8.9296875 36.79296875 C8.91164063 37.58316406 8.89359375 38.37335938 8.875 39.1875 C8.84019531 40.35345703 8.84019531 40.35345703 8.8046875 41.54296875 C8.86585443 44.01444653 8.86585443 44.01444653 9.9453125 46.15234375 C11.53903402 50.45539186 11.65853675 54.82215673 12 59.375 C12.46703664 65.55026223 13.24529956 71.03917938 15 77 C15.94983824 82.22134919 16.71609672 87.47417881 17.5 92.72265625 C17.7475 94.29466797 17.7475 94.29466797 18 95.8984375 C18.144375 96.85411621 18.28875 97.80979492 18.4375 98.79443359 C18.623125 99.52227051 18.80875 100.25010742 19 101 C19.66 101.33 20.32 101.66 21 102 C21 105.96 21 109.92 21 114 C20.505 113.01 20.505 113.01 20 112 C19.34 112 18.68 112 18 112 C14.62473743 88.21122564 14.62473743 88.21122564 14 78 C13.34 78 12.68 78 12 78 C11.83395264 76.87356079 11.83395264 76.87356079 11.66455078 75.72436523 C11.1561938 72.2946748 10.64066136 68.86609949 10.125 65.4375 C9.95097656 64.25607422 9.77695312 63.07464844 9.59765625 61.85742188 C8.72381829 56.08038203 7.71340536 50.58121914 6 45 C5.6547112 43.10986352 5.34090944 41.21363873 5.0625 39.3125 C4.43631619 35.27709323 3.58947056 31.47696306 2.4375 27.5625 C0.06593116 18.61521756 0.23410603 9.20385923 0 0 Z " fill="#299DA1" transform="translate(271,98)"/>
<path d="M0 0 C0.3396019 1.87387477 0.67138691 3.74916697 1 5.625 C1.185625 6.66914062 1.37125 7.71328125 1.5625 8.7890625 C1.99135527 11.93655382 2.21798627 14.8301163 2 18 C1.34 18.66 0.68 19.32 0 20 C0 16.7 0 13.4 0 10 C-18.48 10 -36.96 10 -56 10 C-56 9.34 -56 8.68 -56 8 C-53.36 8 -50.72 8 -48 8 C-48 7.34 -48 6.68 -48 6 C-41.62641289 5.03794912 -35.44070471 4.89344422 -29 5 C-29 5.33 -29 5.66 -29 6 C-30.65 6.33 -32.3 6.66 -34 7 C-32.61494263 7.03758423 -32.61494263 7.03758423 -31.2019043 7.07592773 C-27.77453584 7.17109045 -24.34733539 7.27032214 -20.92016602 7.37231445 C-19.43713985 7.4156133 -17.95406546 7.45729199 -16.47094727 7.49731445 C-14.33855661 7.55513958 -12.20640758 7.61879832 -10.07421875 7.68359375 C-8.79119873 7.72025146 -7.50817871 7.75690918 -6.1862793 7.79467773 C-3 8 -3 8 0 9 C-0.66 7.02 -1.32 5.04 -2 3 C-2.65484375 3.06058594 -3.3096875 3.12117188 -3.984375 3.18359375 C-10.98663453 3.82645656 -17.99184389 4.42515997 -25 5 C-21.47765104 2.65176736 -19.11393342 2.45145613 -14.9375 1.9375 C-9.68771819 1.28195449 -5.27685967 -0.11471434 0 0 Z " fill="#97DDE0" transform="translate(256,72)"/>
<path d="M0 0 C0 0.66 0 1.32 0 2 C-1.79296875 3.55078125 -1.79296875 3.55078125 -4.1875 5.3125 C-6.95512791 7.39257255 -9.55384559 9.42461132 -11.9375 11.9375 C-12.9584375 12.9584375 -12.9584375 12.9584375 -14 14 C-14.66 14 -15.32 14 -16 14 C-16.40798828 14.86625 -16.40798828 14.86625 -16.82421875 15.75 C-17.99820543 17.99656588 -19.33561067 19.94248663 -20.8125 22 C-26.66030301 30.74317864 -29.46209732 39.71692128 -31.03125 50.06640625 C-32 53 -32 53 -34.59375 54.90234375 C-35.78484375 55.44568359 -35.78484375 55.44568359 -37 56 C-36.67 56.33 -36.34 56.66 -36 57 C-35.95907063 59.33297433 -35.95758277 61.66705225 -36 64 C-35.01 64 -34.02 64 -33 64 C-32.67 65.98 -32.34 67.96 -32 70 C-34.5 68.625 -34.5 68.625 -37 67 C-37 66.34 -37 65.68 -37 65 C-37.66 65 -38.32 65 -39 65 C-39.10867302 63.41820385 -39.18589827 61.83422847 -39.25 60.25 C-39.29640625 59.36828125 -39.3428125 58.4865625 -39.390625 57.578125 C-38.88225477 54.22288146 -37.36875899 53.34615633 -35 51 C-34.23718418 48.27722687 -34.23718418 48.27722687 -34 45.3125 C-33.18648239 39.5622516 -31.7261131 35.10294297 -29 30 C-28.505 29.05253906 -28.01 28.10507813 -27.5 27.12890625 C-22.81022446 18.60697616 -11.35364149 0 0 0 Z " fill="#1EA5AA" transform="translate(119,50)"/>
<path d="M0 0 C1.8368763 0.00212242 1.8368763 0.00212242 3.71086121 0.00428772 C7.57158998 0.0098263 11.4322579 0.02236685 15.29296875 0.03515625 C17.93163978 0.0401792 20.57031173 0.04474071 23.20898438 0.04882812 C29.6328328 0.05977551 36.05664642 0.07645107 42.48046875 0.09765625 C42.48046875 0.42765625 42.48046875 0.75765625 42.48046875 1.09765625 C41.59560036 1.09979378 41.59560036 1.09979378 40.69285583 1.10197449 C10.71161147 1.19757669 -18.5918865 2.07040136 -48.2255249 6.74041748 C-53.03027018 7.48864614 -57.84276557 8.18545271 -62.65408325 8.8899231 C-66.40184427 9.43925305 -70.14822777 9.9946992 -73.89160156 10.57324219 C-74.56491013 10.67587875 -75.23821869 10.77851532 -75.93193054 10.88426208 C-77.73378609 11.15932319 -79.53501112 11.43850593 -81.33618164 11.71801758 C-84.43226519 12.08724911 -87.40502915 12.16680202 -90.51953125 12.09765625 C-87.4314343 10.33302942 -86.28640989 10.09765625 -82.51953125 10.09765625 C-82.51953125 9.43765625 -82.51953125 8.77765625 -82.51953125 8.09765625 C-81.615979 8.01201416 -80.71242676 7.92637207 -79.78149414 7.83813477 C-76.43966225 7.51926014 -73.09826361 7.19642031 -69.75708008 6.87084961 C-68.30899218 6.73057575 -66.86074863 6.59189939 -65.41235352 6.45483398 C-63.33437099 6.25791262 -61.25701004 6.05531356 -59.1796875 5.8515625 C-57.92808838 5.73111572 -56.67648926 5.61066895 -55.38696289 5.48657227 C-52.62699172 5.40700168 -52.62699172 5.40700168 -51.51953125 4.09765625 C-50.00867562 3.88280553 -48.48932012 3.7269314 -46.96875 3.59765625 C-46.04255859 3.51515625 -45.11636719 3.43265625 -44.16210938 3.34765625 C-42.6993457 3.22390625 -42.6993457 3.22390625 -41.20703125 3.09765625 C-39.29402231 2.93386686 -37.38124844 2.76730268 -35.46875 2.59765625 C-34.19004028 2.489375 -34.19004028 2.489375 -32.88549805 2.37890625 C-30.59772334 2.16541284 -30.59772334 2.16541284 -28.74072266 1.61485291 C-19.49037141 -0.53905905 -9.44100095 -0.04208519 0 0 Z " fill="#9DE0E1" transform="translate(209.51953125,235.90234375)"/>
<path d="M0 0 C10.66843198 1.5483388 18.68178486 10.91399409 25 19 C31.20304716 28.36333645 34.17429875 37.67500027 34.69140625 48.84765625 C34.84416016 49.91306641 34.84416016 49.91306641 35 51 C35.99 51.495 35.99 51.495 37 52 C36.67 54.31 36.34 56.62 36 59 C34.68 59 33.36 59 32 59 C31.92523438 57.89785156 31.85046875 56.79570313 31.7734375 55.66015625 C30.28418432 37.27840031 25.53977053 21.31249801 11.4375 8.5625 C8.31002056 6.08107265 4.94486746 3.99803424 1.50390625 1.98046875 C1.00761719 1.65691406 0.51132813 1.33335938 0 1 C0 0.67 0 0.34 0 0 Z " fill="#1EA5AA" transform="translate(163,52)"/>
<path d="M0 0 C2.97 0 5.94 0 9 0 C10.51772503 6.58076086 10.72972381 11.61217521 7.30664062 17.4934082 C5.64338244 20.10404141 3.96066813 22.60233877 2 25 C1.34 25 0.68 25 0 25 C0 16.75 0 8.5 0 0 Z " fill="#3F9FA1" transform="translate(144,145)"/>
<path d="M0 0 C0.99 0.33 1.98 0.66 3 1 C2.236875 1.86625 1.47375 2.7325 0.6875 3.625 C-1.11813542 5.77456597 -2.24334914 7.49683782 -3.5 10.0625 C-5.20765797 13.40666352 -7.35482463 15.35482463 -10 18 C-16.38467671 27.38923045 -17.48714223 37.87629192 -18 49 C-18.99 49 -19.98 49 -21 49 C-22.08089573 34.75619633 -17.91753762 20.34767227 -9 9 C-8.01 9 -7.02 9 -6 9 C-5.896875 8.401875 -5.79375 7.80375 -5.6875 7.1875 C-4.90175967 4.68741714 -4.03081147 3.62464918 -2 2 C-1.34 2 -0.68 2 0 2 C0 1.34 0 0.68 0 0 Z " fill="#22A2A8" transform="translate(113,62)"/>
<path d="M0 0 C2.03473682 3.05210523 2.53585699 4.81575774 3.23681641 8.35424805 C3.45689362 9.44936203 3.67697083 10.54447601 3.90371704 11.67277527 C4.24915054 13.44930229 4.24915054 13.44930229 4.6015625 15.26171875 C4.8428891 16.48147903 5.0842157 17.70123932 5.33285522 18.95796204 C5.84215099 21.5422609 6.34861584 24.12693287 6.85058594 26.71264648 C7.36391039 29.35493193 7.88372063 31.9957936 8.41015625 34.63549805 C9.1695204 38.44686694 9.91836682 42.26015459 10.6640625 46.07421875 C10.89839996 47.24844894 11.13273743 48.42267914 11.37417603 49.63249207 C12.50361451 55.50164012 13.48855536 61.01981836 13 67 C12.01 67.99 12.01 67.99 11 69 C10.81824219 67.9584375 10.63648438 66.916875 10.44921875 65.84375 C9.64118772 61.2276694 8.82315808 56.61340575 8 52 C7.79189697 50.83210938 7.79189697 50.83210938 7.57958984 49.640625 C7.182745 47.42620251 6.77991479 45.21295946 6.375 43 C6.25213623 42.31228516 6.12927246 41.62457031 6.00268555 40.91601562 C5.61372356 37.67832282 5.61372356 37.67832282 4 35 C3.7971673 33.50049346 3.65298608 31.9929429 3.53515625 30.484375 C3.45716797 29.56269531 3.37917969 28.64101562 3.29882812 27.69140625 C3.1425483 25.74630358 2.98885894 23.80099087 2.83789062 21.85546875 C2.71897461 20.46521484 2.71897461 20.46521484 2.59765625 19.046875 C2.53070557 18.19963867 2.46375488 17.35240234 2.39477539 16.47949219 C1.96254832 13.76477475 1.05472403 11.52969999 0 9 C-0.1953125 6.54296875 -0.1953125 6.54296875 -0.125 4.1875 C-0.10695313 3.39730469 -0.08890625 2.60710937 -0.0703125 1.79296875 C-0.03550781 0.90544922 -0.03550781 0.90544922 0 0 Z " fill="#59A5A7" transform="translate(279,133)"/>
<path d="M0 0 C1.48828125 1.11328125 1.48828125 1.11328125 3 3 C3.29296875 5.91796875 3.29296875 5.91796875 3.1875 9.1875 C3.16042969 10.27417969 3.13335937 11.36085938 3.10546875 12.48046875 C3.07066406 13.31191406 3.03585938 14.14335938 3 15 C4.32 15 5.64 15 7 15 C7 12.69 7 10.38 7 8 C7.66 8.33 8.32 8.66 9 9 C8.125 15.875 8.125 15.875 7 17 C-0.52238806 17.23880597 -0.52238806 17.23880597 -3 16 C-1.8624438 18.59141286 -1.8624438 18.59141286 0 21 C3.24185935 21.66499679 4.5366313 21.30056348 7.3125 19.5 C7.869375 19.005 8.42625 18.51 9 18 C7.125 22.875 7.125 22.875 6 24 C-1.47796427 24.423281 -1.47796427 24.423281 -5 22 C-6.05865541 19.05543387 -6.15756032 16.1131746 -6 13 C-4.625 10.375 -4.625 10.375 -3 8 C-2.6503582 5.66905466 -2.31445513 3.33595238 -2 1 C-1.34 0.67 -0.68 0.34 0 0 Z " fill="#08C1CA" transform="translate(192,96)"/>
<path d="M0 0 C23.76 0 47.52 0 72 0 C72 0.33 72 0.66 72 1 C61.55177791 2.97003514 51.66865123 4.50892859 41 4 C41 3.67 41 3.34 41 3 C22.0076063 2.12292438 22.0076063 2.12292438 3 2 C2.01 2 1.02 2 0 2 C0 1.34 0 0.68 0 0 Z M49 1 C49 1.33 49 1.66 49 2 C51.31 2 53.62 2 56 2 C56 1.67 56 1.34 56 1 C53.69 1 51.38 1 49 1 Z " fill="#BBEFF1" transform="translate(58,236)"/>
<path d="M0 0 C6.30493539 6.30493539 8.91767791 9.97835238 9.0625 18.8125 C9.041875 19.864375 9.02125 20.91625 9 22 C6.03 22 3.06 22 0 22 C0 14.74 0 7.48 0 0 Z " fill="#329A9C" transform="translate(145,187)"/>
<path d="M0 0 C1.56176168 2.85486791 2.41546382 5.39558209 3.00561523 8.59057617 C3.17596786 9.49639938 3.3463205 10.4022226 3.52183533 11.335495 C3.78753075 12.7994445 3.78753075 12.7994445 4.05859375 14.29296875 C4.24841324 15.31240067 4.43823273 16.33183258 4.63380432 17.38215637 C5.24070029 20.6495846 5.83912744 23.91850131 6.4375 27.1875 C6.83605085 29.33799035 7.23513399 31.48838211 7.63476562 33.63867188 C9.81795018 45.41501626 11.94455967 57.20069974 14 69 C13.34 69 12.68 69 12 69 C7.87086831 59.05254639 6.76827605 48.70042899 5.46484375 38.08984375 C5.1774523 35.09725913 5.1774523 35.09725913 4 33 C3.65243026 30.49983447 3.34313247 28.00768832 3.0625 25.5 C2.50929328 20.76177915 1.89186851 16.10355623 0.875 11.4375 C0.02729183 7.52347243 -0.17382123 3.99788822 0 0 Z " fill="#9BC9CA" transform="translate(266,63)"/>
<path d="M0 0 C0.99 0.66 1.98 1.32 3 2 C3 2.66 3 3.32 3 4 C-4.40487987 5.55653597 -11.67061577 6.35234292 -19.2265625 6.75390625 C-21.90664286 6.69269563 -21.90664286 6.69269563 -23 8 C-29.56722853 9.78539919 -35.95432872 10.28021911 -42.7265625 10.1953125 C-44.03710098 10.19106766 -44.03710098 10.19106766 -45.37411499 10.18673706 C-48.12455814 10.17567303 -50.87465774 10.15059581 -53.625 10.125 C-55.50650567 10.11495234 -57.38801651 10.10582964 -59.26953125 10.09765625 C-63.84648357 10.07577912 -68.42318385 10.04134719 -73 10 C-72.34 8.35 -71.68 6.7 -71 5 C-70.67 5.66 -70.34 6.32 -70 7 C-70.33 7.66 -70.66 8.32 -71 9 C-54.07914695 9.03219953 -37.61214404 7.39468946 -20.875 5.0625 C-19.89864594 4.92930359 -18.92229187 4.79610718 -17.91635132 4.65887451 C-15.12732626 4.27508497 -12.34079669 3.87701775 -9.5546875 3.47265625 C-8.70484787 3.35488327 -7.85500824 3.23711029 -6.97941589 3.11576843 C-4.9745243 2.81354685 -2.98435208 2.41626313 -1 2 C-0.67 1.34 -0.34 0.68 0 0 Z " fill="#C5EFF0" transform="translate(176,71)"/>
<path d="M0 0 C10.46793423 3.84312271 17.07566961 11.80664164 23 21 C23.66 22.65 24.32 24.3 25 26 C31.435 25.505 31.435 25.505 38 25 C35.15385976 27.84614024 32.19630858 27.45579076 28.375 27.625 C27.66859375 27.66367188 26.9621875 27.70234375 26.234375 27.7421875 C24.49001476 27.83647724 22.74504309 27.91932891 21 28 C19.09681116 25.14521674 18.5380901 23.58058692 17.875 20.3125 C17.70742187 19.50425781 17.53984375 18.69601563 17.3671875 17.86328125 C17.24601562 17.24839844 17.12484375 16.63351563 17 16 C16.01 16 15.02 16 14 16 C14 14.68 14 13.36 14 12 C12.63875 11.62875 12.63875 11.62875 11.25 11.25 C7.85924003 9.94586155 6.23078312 8.83137858 4 6 C4 5.01 4 4.02 4 3 C2.35 2.67 0.7 2.34 -1 2 C-0.67 1.34 -0.34 0.68 0 0 Z " fill="#7CC1C2" transform="translate(171,44)"/>
<path d="M0 0 C6.27 0 12.54 0 19 0 C19 1.98 19 3.96 19 6 C12.73 6 6.46 6 0 6 C0 4.02 0 2.04 0 0 Z " fill="#F5FDFD" transform="translate(185,127)"/>
<path d="M0 0 C3.94493912 1.31497971 5.1425243 3.47218234 7 7 C10.17031714 14.02158267 12.38571277 21.22145918 12 29 C10.5625 31.6875 10.5625 31.6875 9 34 C8.73304858 36.72085104 8.86053605 39.25720895 9 42 C7 41 7 41 6.375 39.375 C5.87275062 36.19408728 5.82144783 33.21393904 6 30 C6.66 29.34 7.32 28.68 8 28 C7.81870815 25.07008981 7.53430659 22.27307887 7.125 19.375 C6.96837891 18.17230469 6.96837891 18.17230469 6.80859375 16.9453125 C6.54890412 14.96222803 6.27571688 12.98091972 6 11 C5.34 11 4.68 11 4 11 C2.68 7.37 1.36 3.74 0 0 Z " fill="#1DA5AB" transform="translate(178,75)"/>
<path d="M0 0 C3.46613591 3.01403123 3.88095082 5.35284634 4.20532227 9.84082031 C4.24197998 10.90913086 4.2786377 11.97744141 4.31640625 13.078125 C4.35830078 14.23828125 4.40019531 15.3984375 4.44335938 16.59375 C4.48267578 17.8003125 4.52199219 19.006875 4.5625 20.25 C4.60568359 21.47203125 4.64886719 22.6940625 4.69335938 23.953125 C4.79937355 26.9686392 4.90143936 29.98423448 5 33 C3.68 33 2.36 33 1 33 C-0.12520495 21.98906587 -0.09920291 11.05561292 0 0 Z " fill="#2E9EA2" transform="translate(258,186)"/>
<path d="M0 0 C0.33 0 0.66 0 1 0 C0.98428955 1.29099609 0.9685791 2.58199219 0.95239258 3.91210938 C0.89785959 8.72780046 0.8635651 13.54346454 0.83520508 18.359375 C0.82017157 20.43884887 0.79973926 22.51829131 0.77368164 24.59765625 C0.73705864 27.59643334 0.72021889 30.59478911 0.70703125 33.59375 C0.69154739 34.51490601 0.67606354 35.43606201 0.66011047 36.38513184 C0.65826072 43.57136488 1.94478734 48.91718102 6 55 C2.73687924 53.83459973 0.70552161 52.05863216 -1.16210938 49.14111328 C-3.11255935 44.15700889 -2.48264144 38.5146756 -2.375 33.25 C-2.36210937 31.96134033 -2.34921875 30.67268066 -2.3359375 29.3449707 C-2.17783363 19.4702723 -1.46387982 9.76355558 0 0 Z " fill="#80DBDE" transform="translate(24,180)"/>
<path d="M0 0 C2.35453729 2.35453729 2.47536282 3.46384814 3.0703125 6.68359375 C3.24433594 7.61107422 3.41835938 8.53855469 3.59765625 9.49414062 C3.85869141 10.95110352 3.85869141 10.95110352 4.125 12.4375 C4.30675781 13.40494141 4.48851562 14.37238281 4.67578125 15.36914062 C6 22.5428219 6 22.5428219 6 26 C6.66 26 7.32 26 8 26 C8.18175781 27.17755859 8.18175781 27.17755859 8.3671875 28.37890625 C9.40835923 35.01645952 9.40835923 35.01645952 11.125 41.5 C12.41295739 46.65182956 12.1561412 51.71722277 12 57 C11.67 57 11.34 57 11 57 C9.58814852 50.33011529 8.18303588 43.65883596 6.7824707 36.98657227 C6.30581057 34.71964846 5.82764171 32.45304132 5.34790039 30.18676758 C4.65628958 26.91831401 3.97021697 23.64873816 3.28515625 20.37890625 C3.07157974 19.37541641 2.85800323 18.37192657 2.63795471 17.33802795 C1.43433179 11.56254578 0.55379132 5.8744275 0 0 Z " fill="#81DBDE" transform="translate(265,128)"/>
<path d="M0 0 C0.33 0 0.66 0 1 0 C2.7646888 14.38536492 3.25631351 28.51237165 3 43 C1 42 1 42 0.38209534 40.18389893 C-0.24898143 36.57692512 -0.12089667 32.94668612 -0.09765625 29.296875 C-0.0962413 28.45908508 -0.09482635 27.62129517 -0.09336853 26.75811768 C-0.08778197 24.08870843 -0.07523194 21.4193838 -0.0625 18.75 C-0.05748326 16.93750121 -0.05292066 15.12500111 -0.04882812 13.3125 C-0.03781694 8.87496752 -0.02056155 4.43749809 0 0 Z " fill="#8AC1C3" transform="translate(256,92)"/>
<path d="M0 0 C0.99 0 1.98 0 3 0 C3 2.64 3 5.28 3 8 C5.64 8 8.28 8 11 8 C11 5.69 11 3.38 11 1 C11.66 1 12.32 1 13 1 C15.60018816 4.90028225 15.15085514 8.47434569 15 13 C13.68 13.33 12.36 13.66 11 14 C11 12.68 11 11.36 11 10 C9.700625 10.020625 8.40125 10.04125 7.0625 10.0625 C5.70834367 10.08399454 4.35243917 10.07148199 3 10 C2.67 9.67 2.34 9.34 2 9 C1.67 9.66 1.34 10.32 1 11 C0.34 11 -0.32 11 -1 11 C-1.54372951 7.94152152 -2 5.11227195 -2 2 C-1.34 1.34 -0.68 0.68 0 0 Z " fill="#9EDDDE" transform="translate(84,103)"/>
<path d="M0 0 C-1.19625 -0.061875 -2.3925 -0.12375 -3.625 -0.1875 C-16.69362028 -0.12575849 -27.80369194 3.68392978 -37.125 12.875 C-38.09411748 13.90664119 -39.05692193 14.94450203 -40 16 C-40 12.08087178 -38.4275386 10.95856266 -36 8 C-36 7.34 -36 6.68 -36 6 C-35.01 6 -34.02 6 -33 6 C-33 5.34 -33 4.68 -33 4 C-29.5647952 1.70986347 -28.014669 1.82157027 -24 2 C-24 1.34 -24 0.68 -24 0 C-6.05980066 -3.34883721 -6.05980066 -3.34883721 0 0 Z " fill="#9CD2D4" transform="translate(151,55)"/>
<path d="M0 0 C1.32 0 2.64 0 4 0 C4 14.19 4 28.38 4 43 C3.67 43 3.34 43 3 43 C2.94465088 42.08822998 2.88930176 41.17645996 2.83227539 40.23706055 C2.62296629 36.80208264 2.41217804 33.36720174 2.20043945 29.93237305 C2.10969212 28.45552043 2.01950718 26.97863313 1.92993164 25.50170898 C1.41318761 16.98842319 0.84621462 8.48834126 0 0 Z " fill="#329799" transform="translate(252,82)"/>
<path d="M0 0 C0 0.33 0 0.66 0 1 C-1.65 1.33 -3.3 1.66 -5 2 C5.23 2.33 15.46 2.66 26 3 C26 3.33 26 3.66 26 4 C8.51 4 -8.98 4 -27 4 C-27 3.67 -27 3.34 -27 3 C-24.36 3 -21.72 3 -19 3 C-19 2.34 -19 1.68 -19 1 C-12.62641289 0.03794912 -6.44070471 -0.10655578 0 0 Z " fill="#DEF2F3" transform="translate(227,77)"/>
<path d="M0 0 C3.63 0 7.26 0 11 0 C11 0.33 11 0.66 11 1 C8.36 1 5.72 1 3 1 C3 1.66 3 2.32 3 3 C20.16 3 37.32 3 55 3 C54.67 3.66 54.34 4.32 54 5 C36.18 4.67 18.36 4.34 0 4 C0 2.68 0 1.36 0 0 Z " fill="#21BAC1" transform="translate(197,79)"/>
<path d="M0 0 C0 0.99 0 1.98 0 3 C0.99 3.33 1.98 3.66 3 4 C2.42176904 8.06225548 1.10882263 10.84762346 -1.0625 14.3125 C-1.61035156 15.19550781 -2.15820312 16.07851562 -2.72265625 16.98828125 C-3.35494141 17.98408203 -3.35494141 17.98408203 -4 19 C-6 16 -6 16 -5.8984375 13.73046875 C-4.77310946 8.26339001 -3.47012004 4.39548539 0 0 Z " fill="#2EC9D1" transform="translate(94,62)"/>
<path d="M0 0 C1.47906892 -0.02689216 2.95827483 -0.04634621 4.4375 -0.0625 C5.26121094 -0.07410156 6.08492187 -0.08570312 6.93359375 -0.09765625 C9 0 9 0 10 1 C10.04080783 2.99958364 10.04254356 5.00045254 10 7 C6.7 7 3.4 7 0 7 C0 4.69 0 2.38 0 0 Z " fill="#2C9DA1" transform="translate(204,127)"/>
<path d="M0 0 C-3 1 -3 1 -5.87890625 0.0703125 C-11.42733884 -1.66676584 -17.18504901 -1.2100277 -22.9375 -1.125 C-24.67870117 -1.11146484 -24.67870117 -1.11146484 -26.45507812 -1.09765625 C-29.30360108 -1.07421162 -32.15169078 -1.04139522 -35 -1 C-23.49714944 -8.66856704 -11.94383367 -4.19607707 0 0 Z " fill="#C1EDEE" transform="translate(163,49)"/>
<path d="M0 0 C3.63 0 7.26 0 11 0 C11 1.98 11 3.96 11 6 C7.37 6 3.74 6 0 6 C0 4.02 0 2.04 0 0 Z " fill="#2C9A9E" transform="translate(101,127)"/>
<path d="M0 0 C4.58249365 0.63645745 4.58249365 0.63645745 6.75097656 2.5246582 C9.84224913 4.55250884 12.06054434 4.34130863 15.734375 4.29296875 C17.67763672 4.2784668 17.67763672 4.2784668 19.66015625 4.26367188 C21.02344354 4.23860783 22.38672479 4.21321302 23.75 4.1875 C25.12889184 4.17244518 26.50779935 4.15875817 27.88671875 4.14648438 C31.25820915 4.11111909 34.62890654 4.06175904 38 4 C38 4.33 38 4.66 38 5 C11.03073021 8.83319571 11.03073021 8.83319571 0 2 C0 1.34 0 0.68 0 0 Z " fill="#AAE1E4" transform="translate(51,248)"/>
<path d="M0 0 C0.66 0 1.32 0 2 0 C2.04254356 1.99954746 2.04080783 4.00041636 2 6 C1.67 6.33 1.34 6.66 1 7 C2.1375562 9.59141286 2.1375562 9.59141286 4 12 C7.24185935 12.66499679 8.5366313 12.30056348 11.3125 10.5 C11.869375 10.005 12.42625 9.51 13 9 C11.125 13.875 11.125 13.875 10 15 C2.5050216 15.42424406 2.5050216 15.42424406 -1 13 C-1.6796875 10.9765625 -1.6796875 10.9765625 -1.875 8.625 C-1.95492187 7.85414062 -2.03484375 7.08328125 -2.1171875 6.2890625 C-1.98566262 3.7199432 -1.29480364 2.19815501 0 0 Z " fill="#5AADB0" transform="translate(188,105)"/>
<path d="M0 0 C5.06551102 7.59826653 6.45050524 15.98989516 6 25 C5.34 25.66 4.68 26.32 4 27 C2.34292907 18.01638277 0.72356337 9.11689851 0 0 Z " fill="#50A2A2" transform="translate(286,175)"/>
<path d="M0 0 C0 0.33 0 0.66 0 1 C-1.15628906 1.03867188 -1.15628906 1.03867188 -2.3359375 1.078125 C-3.33882813 1.13484375 -4.34171875 1.1915625 -5.375 1.25 C-6.37273437 1.29640625 -7.37046875 1.3428125 -8.3984375 1.390625 C-11.12768559 1.70994288 -11.12768559 1.70994288 -12.2109375 3.90625 C-12.47132813 4.5971875 -12.73171875 5.288125 -13 6 C-15.86057917 8.86057917 -17.23094191 9.94195788 -21.3125 10.25 C-22.199375 10.1675 -23.08625 10.085 -24 10 C-24 9.67 -24 9.34 -24 9 C-22.35 9 -20.7 9 -19 9 C-18.938125 8.443125 -18.87625 7.88625 -18.8125 7.3125 C-15.61795411 -1.77966908 -8.152343 -0.53712362 0 0 Z " fill="#6AB5B8" transform="translate(273,226)"/>
<path d="M0 0 C-0.33 0.66 -0.66 1.32 -1 2 C-3.45632399 2.45333844 -5.83516047 2.79599481 -8.3125 3.0625 C-13.214105 3.56193089 -13.214105 3.56193089 -18.02734375 4.5546875 C-21.09725564 5.24769731 -24.111606 5.0915592 -27.25 5.0625 C-28.51328125 5.05347656 -29.7765625 5.04445312 -31.078125 5.03515625 C-32.04234375 5.02355469 -33.0065625 5.01195312 -34 5 C-34 4.67 -34 4.34 -34 4 C-30.12302581 3.42484029 -26.24526007 2.85537934 -22.36669922 2.29101562 C-20.40418724 2.00426467 -18.44232137 1.71310287 -16.48046875 1.421875 C-15.23652344 1.24140625 -13.99257812 1.0609375 -12.7109375 0.875 C-10.99849854 0.62363281 -10.99849854 0.62363281 -9.25146484 0.3671875 C-6.1344086 0.01517875 -3.13351385 -0.06640559 0 0 Z " fill="#A3E6E9" transform="translate(99,240)"/>
<path d="M0 0 C0 0.33 0 0.66 0 1 C-2.05078125 1.22786458 -4.1015625 1.45572917 -6.15234375 1.68359375 C-8.01140229 1.81886614 -8.01140229 1.81886614 -9 3 C-10.92478813 3.15806531 -12.8549921 3.251135 -14.78515625 3.31640625 C-16.53989258 3.37924805 -16.53989258 3.37924805 -18.33007812 3.44335938 C-19.56177734 3.48267578 -20.79347656 3.52199219 -22.0625 3.5625 C-23.91584961 3.62727539 -23.91584961 3.62727539 -25.80664062 3.69335938 C-28.87097335 3.79984198 -31.93539073 3.90185424 -35 4 C-35 3.67 -35 3.34 -35 3 C-11.41761516 -0.58165209 -11.41761516 -0.58165209 0 0 Z " fill="#A5E6E8" transform="translate(266,62)"/>
<path d="M0 0 C0.33 0 0.66 0 1 0 C3.33071418 9.32285673 1.67492265 14.85227766 -3 23 C-3.33 23 -3.66 23 -4 23 C-3.67 19.7 -3.34 16.4 -3 13 C-2.34 13 -1.68 13 -1 13 C-0.67 8.71 -0.34 4.42 0 0 Z " fill="#6AAFB1" transform="translate(292,197)"/>
<path d="M0 0 C5.61 0.33 11.22 0.66 17 1 C20.375 8.875 20.375 8.875 21 13 C18.36785506 10.64014591 17.07398622 9.22195866 15.9375 5.8125 C14.31260348 2.76334176 14.31260348 2.76334176 11.47265625 2.46484375 C9.51618302 2.32344292 7.55507124 2.23475921 5.59375 2.203125 C3 2 3 2 0 0 Z " fill="#A1E9EA" transform="translate(30,235)"/>
<path d="M0 0 C-2.65718074 2.65718074 -4.55791513 2.5939467 -8.25 3.125 C-9.36890625 3.29257813 -10.4878125 3.46015625 -11.640625 3.6328125 C-14.79447131 3.97753524 -17.83085084 4.06722438 -21 4 C-17.91190305 2.23537317 -16.76687864 2 -13 2 C-13 1.34 -13 0.68 -13 0 C-11.58456585 -0.19658808 -10.16755969 -0.38187546 -8.75 -0.5625 C-7.96109375 -0.66691406 -7.1721875 -0.77132812 -6.359375 -0.87890625 C-3.99467126 -1.00027349 -2.2488963 -0.69633257 0 0 Z " fill="#86D4D8" transform="translate(140,244)"/>
<path d="M0 0 C0.33 0 0.66 0 1 0 C1 3.96 1 7.92 1 12 C2.32 12 3.64 12 5 12 C5 9.69 5 7.38 5 5 C5.66 5.33 6.32 5.66 7 6 C6.125 12.875 6.125 12.875 5 14 C2.32941149 14.14115161 -0.32432238 14.04247107 -3 14 C-3.33 13.34 -3.66 12.68 -4 12 C-2.68 12 -1.36 12 0 12 C-0.185625 11.319375 -0.37125 10.63875 -0.5625 9.9375 C-1.08523943 6.42767809 -0.61378577 3.47811937 0 0 Z " fill="#76D6D8" transform="translate(194,99)"/>
<path d="M0 0 C-0.84304687 0.55429687 -1.68609375 1.10859375 -2.5546875 1.6796875 C-3.65039062 2.40414062 -4.74609375 3.12859375 -5.875 3.875 C-6.96554688 4.59429687 -8.05609375 5.31359375 -9.1796875 6.0546875 C-11.98427498 7.86388308 -11.98427498 7.86388308 -14 10 C-16.125 9.625 -16.125 9.625 -18 9 C-4.44235696 -2.22117848 -4.44235696 -2.22117848 0 0 Z " fill="#8CDFE2" transform="translate(123,41)"/>
<path d="M0 0 C0.99 0 1.98 0 3 0 C3 2.31 3 4.62 3 7 C3.99 7 4.98 7 6 7 C6.33 8.98 6.66 10.96 7 13 C4.5 11.625 4.5 11.625 2 10 C2 9.34 2 8.68 2 8 C1.34 8 0.68 8 0 8 C0 5.36 0 2.72 0 0 Z " fill="#3EA3A7" transform="translate(80,107)"/>
<path d="M0 0 C0.99 0.33 1.98 0.66 3 1 C1.8553125 2.299375 1.8553125 2.299375 0.6875 3.625 C-1.76076205 6.53663368 -3.32992655 9.58032579 -5 13 C-5.99 13.495 -5.99 13.495 -7 14 C-6.51058824 6.65882353 -6.51058824 6.65882353 -4.0625 3.5 C-2 2 -2 2 0 2 C0 1.34 0 0.68 0 0 Z " fill="#57B0B1" transform="translate(113,62)"/>
<path d="M0 0 C0.99 0 1.98 0 3 0 C3.25 7.625 3.25 7.625 1 11 C0.34 11 -0.32 11 -1 11 C-1.54372951 7.94152152 -2 5.11227195 -2 2 C-1.34 1.34 -0.68 0.68 0 0 Z " fill="#8FCECF" transform="translate(84,103)"/>
<path d="M0 0 C3.72311808 5.58467712 5.30972369 11.37334739 6 18 C5.34 18 4.68 18 4 18 C1.42113193 11.94526627 0.38979206 6.55925943 0 0 Z " fill="#5DA8A9" transform="translate(274,114)"/>
<path d="M0 0 C0.66 0 1.32 0 2 0 C2.33910994 2.04071515 2.67102704 4.08262621 3 6.125 C3.185625 7.26195313 3.37125 8.39890625 3.5625 9.5703125 C3.96956049 12.76137602 4.07809902 15.78817791 4 19 C0.42795894 15.42795894 0.15277779 9.70703146 -0.125 4.78515625 C-0.125 3.18956004 -0.06930827 1.59409022 0 0 Z " fill="#20A3A8" transform="translate(268,93)"/>
<path d="M0 0 C1.09054688 0.02320313 2.18109375 0.04640625 3.3046875 0.0703125 C4.40039062 0.08835938 5.49609375 0.10640625 6.625 0.125 C7.46804687 0.14820313 8.31109375 0.17140625 9.1796875 0.1953125 C8.59703125 0.46085938 8.014375 0.72640625 7.4140625 1 C5.11794522 2.22834246 3.37612732 3.59846189 1.4296875 5.3203125 C0.81609375 5.85914063 0.2025 6.39796875 -0.4296875 6.953125 C-0.88859375 7.36304688 -1.3475 7.77296875 -1.8203125 8.1953125 C-1.8203125 7.2053125 -1.8203125 6.2153125 -1.8203125 5.1953125 C0.1796875 3.5078125 0.1796875 3.5078125 2.1796875 2.1953125 C-0.1303125 2.1953125 -2.4403125 2.1953125 -4.8203125 2.1953125 C-2.8203125 0.1953125 -2.8203125 0.1953125 0 0 Z " fill="#36B5B8" transform="translate(79.8203125,157.8046875)"/>
<path d="M0 0 C0.66 0.33 1.32 0.66 2 1 C-3.94 6.445 -3.94 6.445 -10 12 C-10.66 11.67 -11.32 11.34 -12 11 C-4.53567681 1.94386149 -4.53567681 1.94386149 0 0 Z " fill="#D3F6F6" transform="translate(67,148)"/>
<path d="M0 0 C0.99 0 1.98 0 3 0 C2.49701212 4.40114397 0.91227269 6.71195019 -2 10 C-2.66 9.67 -3.32 9.34 -4 9 C-1.125 2.25 -1.125 2.25 0 0 Z " fill="#349EA1" transform="translate(104,71)"/>
<path d="M0 0 C3.31658613 4.9748792 4.38479461 11.03568353 4 17 C2 14 2 14 2 11 C1.34 11 0.68 11 0 11 C0 7.37 0 3.74 0 0 Z " fill="#6DAEB1" transform="translate(285,164)"/>
<path d="M0 0 C0 0.33 0 0.66 0 1 C-6.76485645 2.6120509 -13.04958914 3.26618595 -20 3 C-20 2.67 -20 2.34 -20 2 C-13.38190423 -0.46254726 -6.99560484 -0.18935472 0 0 Z " fill="#5DD1D6" transform="translate(153,78)"/>
<path d="M0 0 C0.66 0.66 1.32 1.32 2 2 C1.67 2.61875 1.34 3.2375 1 3.875 C-0.14193235 5.91018344 -0.14193235 5.91018344 0 8 C0.66 8 1.32 8 2 8 C1.67 8.66 1.34 9.32 1 10 C-1.64 7.69 -4.28 5.38 -7 3 C-3 2 -3 2 -1 2 C-0.67 1.34 -0.34 0.68 0 0 Z " fill="#55D1D5" transform="translate(176,62)"/>
<path d="M0 0 C0.66 0.33 1.32 0.66 2 1 C1.3503125 1.556875 1.3503125 1.556875 0.6875 2.125 C-1.20781608 4.04417428 -1.20781608 4.04417428 -2.4375 7.125 C-4 10 -4 10 -6.1875 10.875 C-7.0846875 10.936875 -7.0846875 10.936875 -8 11 C-6.63629701 8.00779732 -5.05091917 5.70973471 -2.875 3.25 C-2.33617188 2.63640625 -1.79734375 2.0228125 -1.2421875 1.390625 C-0.62730469 0.70226563 -0.62730469 0.70226563 0 0 Z " fill="#91E2E5" transform="translate(103,51)"/>
<path d="M0 0 C3.36016893 1.12005631 4.69064913 2.37211797 7 5 C7 5.66 7 6.32 7 7 C4.625 7.125 4.625 7.125 2 7 C0 5 0 5 -0.125 2.375 C-0.08375 1.59125 -0.0425 0.8075 0 0 Z " fill="#69B7BB" transform="translate(58,238)"/>
<path d="M0 0 C1.94566808 2.91850212 2.5152457 4.57622848 3.1875 7.9375 C3.36667969 8.79214844 3.54585938 9.64679688 3.73046875 10.52734375 C4.00123705 13.01134859 3.77059444 14.64449502 3 17 C0.4084738 11.06108578 -0.40368295 6.45892714 0 0 Z " fill="#6CADAD" transform="translate(279,133)"/>
<path d="M0 0 C1.98 0.99 1.98 0.99 4 2 C3.67 4.31 3.34 6.62 3 9 C2.01 9 1.02 9 0 9 C0 6.03 0 3.06 0 0 Z " fill="#3B9DA0" transform="translate(196,102)"/>
<path d="M0 0 C1.79244141 0.01740234 1.79244141 0.01740234 3.62109375 0.03515625 C5.41740234 0.04869141 5.41740234 0.04869141 7.25 0.0625 C8.17683594 0.07410156 9.10367187 0.08570313 10.05859375 0.09765625 C10.05859375 0.42765625 10.05859375 0.75765625 10.05859375 1.09765625 C6.42859375 1.42765625 2.79859375 1.75765625 -0.94140625 2.09765625 C-1.27140625 3.08765625 -1.60140625 4.07765625 -1.94140625 5.09765625 C-2.60140625 3.77765625 -3.26140625 2.45765625 -3.94140625 1.09765625 C-2.94140625 0.09765625 -2.94140625 0.09765625 0 0 Z " fill="#8ED2D4" transform="translate(262.94140625,225.90234375)"/>
<path d="M0 0 C0.33 0.66 0.66 1.32 1 2 C0.690625 2.53625 0.38125 3.0725 0.0625 3.625 C-1.50799373 7.13551539 -1.12756928 10.17292161 -1 14 C-1.66 13.67 -2.32 13.34 -3 13 C-3.85792053 10.02144493 -4.15681685 7.09307715 -4 4 C-2.0625 1.4375 -2.0625 1.4375 0 0 Z " fill="#30999E" transform="translate(188,103)"/>
<path d="M0 0 C1.32 0 2.64 0 4 0 C4 3.3 4 6.6 4 10 C3.01 10.33 2.02 10.66 1 11 C0.67 7.37 0.34 3.74 0 0 Z " fill="#429FA2" transform="translate(252,82)"/>
<path d="M0 0 C4.59306496 1.4859916 7.43569245 3.85014682 11 7 C10.01 7.495 10.01 7.495 9 8 C6.375 7.0625 6.375 7.0625 4 6 C4 5.01 4 4.02 4 3 C2.35 2.67 0.7 2.34 -1 2 C-0.67 1.34 -0.34 0.68 0 0 Z " fill="#97CACB" transform="translate(171,44)"/>
<path d="M0 0 C2.6486859 3.19668988 4.93992341 6.39486597 7 10 C6.34 10 5.68 10 5 10 C4.34 9.34 3.68 8.68 3 8 C2.34 8.66 1.68 9.32 1 10 C0.67 6.7 0.34 3.4 0 0 Z " fill="#26C1C7" transform="translate(153,198)"/>
<path d="M0 0 C2.31 0 4.62 0 7 0 C6.6875 2.375 6.6875 2.375 6 5 C5.01 5.66 4.02 6.32 3 7 C3 5.02 3 3.04 3 1 C2.01 0.67 1.02 0.34 0 0 Z " fill="#259EA2" transform="translate(176,145)"/>
<path d="M0 0 C3.78786597 0.5260925 6.17152224 1.38103911 9 4 C9 4.66 9 5.32 9 6 C5.59687262 4.94124926 2.98646769 3.99097846 0 2 C0 1.34 0 0.68 0 0 Z " fill="#82DDDF" transform="translate(51,248)"/>
<path d="M0 0 C0.99 0.66 1.98 1.32 3 2 C3 2.66 3 3.32 3 4 C-2.28 4 -7.56 4 -13 4 C-13 3.67 -13 3.34 -13 3 C-8.71 3 -4.42 3 0 3 C0 2.01 0 1.02 0 0 Z " fill="#D0F3F3" transform="translate(174,206)"/>
<path d="M0 0 C0.66 0 1.32 0 2 0 C2.17942163 3.94727588 2.09350689 6.5980513 0 10 C-1.36952673 7.26094655 -1.12621361 5.02912668 -1 2 C-0.67 1.34 -0.34 0.68 0 0 Z " fill="#AEE0DF" transform="translate(188,105)"/>
<path d="M0 0 C0.99 0.66 1.98 1.32 3 2 C3 2.66 3 3.32 3 4 C-0.96 4 -4.92 4 -9 4 C-9 3.67 -9 3.34 -9 3 C-5.92382812 2.70703125 -5.92382812 2.70703125 -2.84765625 2.4140625 C-2.23792969 2.27742188 -1.62820312 2.14078125 -1 2 C-0.67 1.34 -0.34 0.68 0 0 Z " fill="#C1EEEE" transform="translate(176,71)"/>
<path d="M0 0 C1.10844919 3.32534757 0.84454356 5.62182575 0 9 C-1.32 9 -2.64 9 -4 9 C-2.80100302 5.9168649 -1.52299523 2.93720508 0 0 Z " fill="#24A6AA" transform="translate(288,211)"/>
<path d="M0 0 C0.33 0.66 0.66 1.32 1 2 C-0.5039544 4.79305817 -2.24016054 7.36024081 -4 10 C-4.66 9.67 -5.32 9.34 -6 9 C-4.02 6.03 -2.04 3.06 0 0 Z " fill="#5AA8A9" transform="translate(169,155)"/>
<path d="M0 0 C0 3 0 3 -2 6 C-4.97 5.505 -4.97 5.505 -8 5 C-8 4.67 -8 4.34 -8 4 C-6.576875 3.566875 -6.576875 3.566875 -5.125 3.125 C-1.94788422 2.23174891 -1.94788422 2.23174891 0 0 Z " fill="#B0E8EA" transform="translate(200,114)"/>
<path d="M0 0 C0.99 0.33 1.98 0.66 3 1 C3 2.65 3 4.3 3 6 C2.01 6.33 1.02 6.66 0 7 C0 4.69 0 2.38 0 0 Z " fill="#71DADD" transform="translate(201,107)"/>
</svg>
